<svg width="656" height="504" viewBox="0 0 656 504" fill="none" xmlns="http://www.w3.org/2000/svg">
<ellipse cx="328" cy="251.5" rx="328" ry="251.5" fill="url(#paint0_linear_3678_13686)"/>
<path d="M309.3 212.97C308.6 212.952 308.213 213.149 308.332 213.287C308.632 213.486 308.983 213.593 309.343 213.595C309.505 213.593 309.667 213.571 309.824 213.53C310.117 213.454 310.396 213.33 310.686 213.247C310.233 213.116 309.769 213.023 309.3 212.97Z" fill="#CAE8F9"/>
<path d="M313.948 210.484L313.962 210.521L314.018 210.54L313.948 210.484Z" fill="#CAE8F9"/>
<path d="M324.8 212.523L324.707 212.531L324.693 212.631C324.76 212.704 324.846 212.756 324.941 212.783C325.184 212.858 325.441 212.862 325.684 212.934C325.817 212.974 325.934 213.052 326.068 213.088L326.089 213.094C326.136 213.103 326.184 213.108 326.232 213.107C326.511 213.107 326.789 213.131 327.064 213.178C326.336 212.878 325.576 212.66 324.8 212.527" fill="#CAE8F9"/>
<path d="M336.559 411.031C334.29 411.147 332.394 411.297 331.206 411.416C331.643 411.661 332.068 411.928 332.478 412.216L333.059 412.6C334.141 411.913 335.321 411.395 336.559 411.062" fill="#DFEFF8"/>
<path d="M245.216 406.883C244.983 406.992 244.765 407.13 244.566 407.294L244.216 407.863L242.293 408.152C242.363 408.294 242.447 408.483 242.524 408.617C242.812 409.103 243.137 409.566 243.497 410.001C245.693 412.62 248.558 414.555 250.804 417.131C253.203 419.907 254.78 423.284 257.153 426.064L257.464 426.422C259.102 428.322 260.979 429.994 262.636 431.879C263.573 432.797 264.29 433.914 264.736 435.147C265.409 437.37 264.171 439.581 264.694 441.8C265.528 445.323 267.835 448.253 268.666 451.775C269.102 454.698 270.062 457.519 271.5 460.101C273.388 463.081 276.742 464.289 279.245 466.527L279.703 466.557C280.238 465.73 280.978 465.057 281.852 464.602C282.726 464.147 283.703 463.926 284.687 463.962C285.671 463.997 286.63 464.288 287.468 464.805C288.307 465.322 288.996 466.048 289.47 466.911C292.093 471.584 304.887 466.384 304.968 466.246C304.402 456.178 301.303 442.615 303.083 432.694C303.21 431.967 303.21 431.967 311.344 430.706L310.225 412.666C311.886 412.616 313.77 412.563 316.762 412.409C309.978 411.715 303.153 411.498 296.338 411.759L295.415 411.786L292.339 409.944C263.586 409.517 263.586 409.517 262.521 409.448C259.836 408.992 257.184 408.357 254.584 407.548C252.207 407.071 249.946 408.359 247.577 408.006C246.696 407.93 245.873 407.53 245.27 406.883" fill="#DFEFF8"/>
<path d="M385.212 402.596C382.685 402.294 380.124 402.424 377.64 402.981C376.544 403.288 376.871 404.557 376.179 405.142C373.646 406.64 370.886 407.716 368.007 408.33C366.556 409.1 365.23 410.086 364.073 411.252C361.52 413.517 361.52 413.517 348.884 412.291C349.826 413.444 351.606 413.225 352.498 414.471C353.23 415.953 354.067 417.381 355.002 418.743C355.102 418.86 355.211 418.968 355.329 419.066C357.636 420.789 360.628 420.647 363.116 421.889C364.596 422.627 365.465 424.073 366.773 425.012C369.003 426.611 369.849 429.853 373.053 430.295C377.598 430.407 379.748 431.088 380.994 432.803C381.051 432.88 381.117 433.033 381.213 433.037C386.9 433.399 386.9 433.399 387.27 433.483C387.585 433.56 387.892 433.664 388.189 433.795C388.539 433.995 396.053 434.802 396.099 434.795C396.145 434.787 403.079 431.176 403.513 429.834C403.898 428.653 403.244 427.311 404.082 426.208C405.182 424.758 407.089 424.566 408.378 423.416C407.829 422.929 407.445 422.284 407.278 421.57C406.824 420.193 404.832 419.989 404.794 418.297C404.759 416.675 406.582 416.571 407.139 415.436C407.107 412.923 406.888 410.415 406.486 407.934C400.314 406.346 394.058 405.107 387.746 404.223L386.497 404.169L385.212 402.596Z" fill="#DFEFF8"/>
<path d="M344.207 412.757C342.317 412.805 340.431 412.971 338.562 413.253C336.916 413.638 335.785 415.176 334.02 415.314C332.329 415.384 330.676 414.799 329.406 413.68C328.252 412.911 328.252 412.911 324.137 413.853C320.99 414.695 317.738 415.084 314.481 415.007C315.519 431.316 315.52 431.315 315.354 431.731C314.87 432.977 314.151 433.019 307.279 433.442C307.513 437.449 307.825 442.787 308.048 446.794C313.62 448.432 316.6 454.919 314.347 456.331C314.106 456.478 313.848 456.593 313.578 456.673L313.497 457.242C320.134 457.653 320.134 457.653 325.372 454.239C327.294 452.993 327.437 450.259 329.621 449.239C330.573 448.905 331.582 448.763 332.589 448.822C333.597 448.881 334.583 449.139 335.489 449.582C339.781 451.711 344.666 452.328 349.352 451.335C351.883 450.489 349.995 447.171 352.24 446.167C354.213 445.286 356.447 445.886 358.428 445.059C360.408 444.233 360.151 441.81 361.597 440.599C363.385 439.107 365.75 439.556 367.749 438.784C369.065 438.276 369.564 436.818 370.776 436.192C372.137 435.488 373.76 436.015 375.106 435.253C375.106 435.253 375.675 434.819 376.967 433.588L376.875 433.204C375.929 432.842 374.916 432.691 373.906 432.761C371.634 432.762 369.412 432.093 367.519 430.839C367.288 430.689 361.75 424.767 361.75 424.732C359.574 420.502 354.259 422.752 351.479 419.76C350.325 418.518 350.16 416.683 348.925 415.487L344.222 412.711" fill="#DFEFF8"/>
<path d="M400.313 455.828C398.981 456.332 397.793 457.155 396.852 458.224C397.646 459.524 398.692 460.653 399.928 461.543C400.259 461.735 400.394 461.816 402.809 461.75C402.854 461.406 402.978 461.076 403.172 460.787C403.365 460.499 403.623 460.258 403.924 460.085C403.486 458.605 403.251 457.778 403.02 456.839C402.151 456.432 401.251 456.094 400.328 455.828" fill="#DFEFF8"/>
<path d="M377.321 470.683C375.699 470.89 374.126 471.38 372.675 472.133C372.51 472.229 372.368 472.361 372.26 472.518C371.062 473.85 369.778 475.101 368.414 476.263L372.291 479.44L373.283 479.555C374.925 476.863 375.267 476.317 379.728 476.629H379.955C380.497 475.475 381.639 474.875 382.481 473.994C382.443 473.694 380.889 472.841 379.966 472.341C379.021 471.889 378.13 471.329 377.313 470.672" fill="#DFEFF8"/>
<path d="M376.167 482.464L370.099 481.783L363.277 476.123C365.065 474.6 366.772 472.985 368.392 471.285C368.692 470.877 369.078 470.538 369.522 470.293C371.603 469.157 373.887 468.438 376.244 468.178C377.481 467.992 378.746 468.177 379.878 468.709C386.723 472.635 386.704 473.273 386.677 474.162C386.651 474.541 386.518 474.905 386.292 475.212C386.223 475.308 386.127 475.435 386.05 475.527C385.558 476.123 384.896 476.542 384.354 477.065C383.874 477.534 383.97 478.353 383.351 478.734C382.547 479.226 382.547 479.226 378.494 479.119H378.267C377.582 480.065 377.028 480.945 376.686 481.514L376.156 482.456M380.166 435.422C379.4 436.31 378.442 437.011 377.363 437.471C376.285 437.932 375.115 438.14 373.944 438.079C372.911 439.311 371.615 440.296 370.151 440.962C368.687 441.627 367.092 441.956 365.484 441.925C363.688 443.078 363.75 445.616 361.923 446.751C359.86 447.812 357.564 448.341 355.244 448.289C353.471 450.012 353.54 453.315 350.425 453.88C345.021 454.729 339.488 454.105 334.409 452.073C333.681 451.687 332.881 451.457 332.059 451.4C323.257 459.476 323.257 459.476 321.311 459.987C321.188 460.018 309.282 461.391 309.263 457.172C309.263 457.011 309.301 456.788 309.317 456.638C309.494 455.234 309.517 455.053 311.07 454.476C310.349 452.771 309.384 451.179 308.205 449.75C309.201 467.201 309.201 467.201 308.348 467.99C303.348 472.604 289.666 471.935 286.847 469.485C286.27 468.982 286.27 468.982 284.867 466.494C283.775 467.263 283.182 468.639 281.767 469.005C283.69 471.104 295.127 485.617 295.457 486.144C297.111 488.928 298.987 492.089 294.238 492.547C294.084 495.435 297.453 496.285 297.876 498.842C301.058 499.945 304.112 501.387 306.986 503.142C308.232 503.495 308.232 503.495 309.413 502.757C313.858 499.95 352.74 499.015 353.04 499.061C354.267 497.685 354.94 496.923 359.635 497C381.389 497.496 391.168 477.811 407.258 468.751C408.243 468.213 409.469 467.543 410.277 462.291C406.37 462.371 402.882 465.409 398.74 463.933C398.025 463.675 390.611 459.48 393.61 456.334C394.696 455.007 396.172 454.056 397.829 453.616C399.486 453.177 401.239 453.27 402.84 453.884C403.081 451.718 402.951 449.527 402.455 447.405C400.775 443.578 397.429 440.867 395.514 437.222C390.223 436.56 390.223 436.56 380.132 435.426" fill="#DFEFF8"/>
<path d="M256.672 352.018C248.915 351.926 248.915 351.926 246.927 352.641C246.927 353.218 246.927 354.014 253.08 361.221C255.095 363.593 251.926 365.812 252.88 368.143C254.13 371.219 256.964 373.38 257.929 376.637C258.118 377.226 258.206 377.842 258.187 378.46C258.187 380.99 255.16 383.036 252.957 384.528C250.789 385.979 249.049 387.984 247.919 390.335C247.065 392.027 247.369 394.015 246.535 395.719C245.669 397.48 243.712 398.411 243.024 400.307C242.745 401.828 242.616 403.374 242.639 404.921C247.735 404.965 252.826 405.288 257.887 405.886C259.997 406.774 262.275 407.191 264.563 407.109L293.862 407.548C300.268 411.359 325.499 409.551 325.729 409.517L317.269 402.81L316.973 384.944L330.244 385.49L331.152 384.948L331.978 377.164C330.744 377.368 320.922 378.576 320.896 378.579L320.346 378.545C317.704 377.964 317.231 376.899 318.142 373.596C318.215 372.534 316.554 371.423 315.146 370.677C313.935 370.035 313.678 369.812 313.462 368.696C313.101 366.839 314.85 365.532 314.747 363.743C314.654 362.067 313.151 360.967 312.935 359.336C309.632 359.188 306.346 358.762 303.114 358.064C299.884 357.787 299.884 357.787 299.326 359.675C298.826 361.382 298.438 362.367 296.28 362.397L295.896 362.371C291.8 361.967 287.82 363.77 283.729 363.14C282.628 362.965 281.576 362.564 280.639 361.96C279.703 361.357 278.902 360.566 278.287 359.636C277.045 358.037 273.8 357.714 274.442 354.929C274.496 354.491 274.456 354.046 274.323 353.625C274.19 353.203 273.969 352.815 273.673 352.488C268.001 352.016 262.307 351.866 256.618 352.038" fill="#DFEFF8"/>
<path d="M382.213 365.754C379.856 366.2 377.452 366.338 375.06 366.165L373.137 366.115C373.395 367.473 373.395 367.473 371.092 369.638C375.11 372.33 370.434 376.456 370.569 379.89C374.864 383.247 374.864 383.247 375.402 383.205C381.555 382.697 381.555 382.697 381.69 382.843C382.844 383.947 384.535 388.35 381.132 389.954L380.925 390.054C378.398 390.674 375.753 390.614 373.257 389.881C371.244 388.953 369.614 387.358 368.642 385.366C368.515 385.078 368.457 384.943 365.181 384.851C363.927 384.898 362.679 384.647 361.539 384.12C360.519 383.612 359.587 382.943 358.778 382.14C357.794 383.389 357.671 383.547 345.434 381.847C343.631 381.594 343.561 378.771 341.381 379.09C337.57 379.609 337.57 379.609 337.043 379.452C336.625 379.339 336.224 379.17 335.851 378.948L335.132 386.093L332.029 387.958L321.084 387.5L321.334 402.113C324.026 404.259 327.183 409.235 330.629 408.927C344.681 407.674 345.569 409 346.215 409.966C347.029 409.865 347.848 409.818 348.668 409.823C351.922 410.012 355.056 411.039 358.313 411.212C361.462 410.992 362.439 407.751 364.881 406.516C367.323 405.282 370.08 405.159 372.484 403.909C372.622 403.84 372.791 403.717 372.922 403.632C372.922 401.813 373.757 400.879 378.69 400.14L378.909 400.121L384.028 400.144L382.217 396.906C385.708 396.195 396.334 394.041 403.89 392.634C403.032 391.703 403.052 391.55 403.121 390.892L403.429 390.357C404.728 388.685 403.563 385.262 406.505 384.878C406.466 384.797 403.375 376.76 408.009 375.798C407.009 371.934 403.448 371.084 394.772 369.365C390.651 367.916 386.448 366.709 382.186 365.75" fill="#DFEFF8"/>
<path d="M379.924 331.93C378.652 332.137 377.413 332.51 376.14 332.699C375.467 332.796 374.786 332.832 374.106 332.806H373.645C372.672 333.087 372.183 333.226 372.553 334.914L372.829 336.229L370.907 336.306L371.068 336.498C375.164 336.787 375.164 336.787 375.268 336.606L374.837 335.222C377.241 335.485 379.666 335.5 382.074 335.268C381.801 334.41 381.328 333.63 380.694 332.991L379.924 331.937" fill="#DFEFF8"/>
<path d="M530.48 277.323C527.896 277.839 525.642 279.4 522.985 279.688C517.336 280.308 511.66 279.842 506.003 280.073C503.485 280.169 501.212 281.45 498.697 281.592C496.878 281.696 495.067 281.461 493.252 281.392C488.964 281.227 484.918 283.584 480.561 282.626C477.358 281.927 473.747 276.804 470.948 280.508C472.276 281.855 473.771 283.027 475.397 283.996C477.089 284.653 478.366 286.068 480.127 286.61C485.191 288.176 490.456 288.918 495.578 290.233C498.958 291.207 502.423 291.859 505.926 292.179C508.407 292.34 511.218 292.525 511.979 293.69C513.406 295.87 491.167 307.534 488.645 307.534C485.964 307.189 483.25 307.189 480.569 307.534C478.104 308.168 476.043 310.007 473.347 309.96C471.73 309.964 470.114 310.052 468.506 310.226L465.668 312.895L462.845 315.759L465.675 331.584L468.129 333.672C476.212 327.391 485.243 322.435 494.882 318.99C502.624 315.888 509.74 311.41 515.886 305.773C516.752 305.016 517.563 304.199 518.313 303.327C519.566 301.816 519.724 299.743 520.939 298.212C522.885 295.767 525.627 294.132 527.569 291.675C528.424 290.591 529.181 289.432 529.83 288.214C530.553 286.803 532.522 277.716 530.465 277.281" fill="#DFEFF8"/>
<path d="M104.12 163.355C103.911 163.345 103.702 163.37 103.501 163.428C99.7438 165.385 98.3709 169.858 94.6562 171.842C91.203 173.365 87.5032 174.25 83.7349 174.457C82.885 174.48 82.6005 174.488 82.2313 174.765C71.2601 183.021 73.0751 184.955 74.0519 185.993C77.8666 190.054 56.3202 197.845 56.0895 197.915C76.5015 197.734 76.5015 197.734 78.009 197.853C78.0397 189.501 93.9063 189.254 94.064 189.254H95.1253C95.3381 188.93 95.6308 188.665 95.9752 188.485C98.1355 187.991 100.352 187.786 102.566 187.878C104.689 187.755 105.404 185.428 107.262 184.882C109.954 184.113 112.707 183.844 115.426 183.286C115.464 180.867 115.603 179.791 118.429 179.706C121.89 179.744 122.094 179.414 122.452 178.81C123.413 177.187 134.496 178.041 134.607 178.041L134.807 177.68C134.092 176.141 131.985 176.118 131.304 174.526C130.535 172.753 132.115 170.919 131.162 169.142C130.572 168.233 129.815 167.444 128.931 166.816C125.028 165.71 120.936 165.44 116.922 166.024C113.778 166.597 110.533 166.114 107.693 164.651C106.623 163.94 105.405 163.485 104.132 163.32" fill="#DFEFF8"/>
<path d="M215.905 157.131C213.325 157.131 210.956 158.284 208.41 158.477C207.68 162.061 208.11 162.78 208.61 163.211C209.034 163.561 209.315 164.054 209.4 164.597C209.486 165.141 209.37 165.696 209.076 166.16C206.857 168.256 204.272 169.925 201.45 171.086C201.695 171.664 202.062 172.183 202.527 172.605C202.992 173.027 203.543 173.343 204.142 173.532C206.222 174.078 208.172 174.847 208.372 176.774C210.229 177.543 212.406 177.543 213.963 179.046C215.713 180.998 216.996 183.321 217.716 185.841C218.458 185.204 218.985 184.354 219.228 183.407C219.047 183.216 218.913 182.986 218.834 182.735C218.756 182.484 218.737 182.218 218.777 181.959C218.818 181.699 218.917 181.452 219.068 181.236C219.219 181.021 219.417 180.842 219.647 180.715C221.997 179.091 224.635 177.927 227.419 177.285L228.165 177.17C228.124 176.628 228.142 176.084 228.218 175.547C225.838 174.52 225.477 173.82 225.411 173.386L225.027 172.944C221.343 174.17 215.532 171.963 216.628 169.748C217.07 168.856 218.762 168.425 220.001 168.11C221.923 167.618 224.558 166.956 224.481 165.226C224.458 164.753 224.158 164.072 222.85 163.488C218.555 161.565 221.22 160.096 222.5 159.381C221.124 159.381 219.378 159.034 218.87 157.515C217.914 157.226 216.919 157.09 215.921 157.112" fill="#DFEFF8"/>
<path d="M199.216 157.719C154.108 158.968 154.108 158.968 132.723 166.563C135.488 168.778 135.284 170.197 134.795 173.624C141.444 178.807 137.437 179.819 135.407 180.011C130.162 180.515 124.982 181.649 119.69 181.749H119.163C118.813 184.741 118.779 185.126 116.429 185.249C114.803 186.468 113.737 186.479 109.753 186.522C106.8 188.967 104.254 191.079 94.9751 191.286C90.397 191.962 85.9347 193.269 81.7157 195.17C81.6811 196.293 81.6773 197.416 81.6735 198.539V199.919C170.782 233.075 170.782 233.076 172.024 235.829C177.64 235.562 183.221 234.79 188.698 233.522L202.357 227.438L233.102 216.997C231.822 215.005 231.745 214.998 230.476 214.902C230.395 214.902 220.193 212.848 219.954 212.702L214.386 205.157C214.986 204.353 215.155 204.138 217.262 203.088C216.682 202.431 216.417 202.131 216.343 201.569C215.409 199.389 215.763 199.1 217.255 197.901L215.071 190.682C212.952 188.817 212.709 188.437 214.055 187.371C214.035 185.594 213.492 183.861 212.494 182.39C211.495 180.919 210.086 179.775 208.441 179.1C199.054 176.216 195.366 169.382 199.981 169.282C201.996 168.016 203.935 166.633 205.788 165.141C206.841 162.833 204.357 161.164 204.695 158.988L204.199 158.376C202.534 158.211 200.9 157.849 199.231 157.711" fill="#DFEFF8"/>
<path d="M302.945 177.611C298.334 177.464 293.768 178.552 289.72 180.764C289.762 182.687 292.693 183.875 291.316 186.121C289.607 187.632 287.376 188.416 285.098 188.305C283.786 188.354 282.472 188.265 281.179 188.04C277.222 187.271 273.676 185.183 269.689 184.529C266.458 184.002 263.151 184.279 259.936 183.533C258.282 183.287 256.739 182.549 255.51 181.414C255.294 181.186 255.133 180.91 255.042 180.609C254.951 180.308 254.931 179.99 254.983 179.68C249.757 177.911 244.264 177.056 238.748 177.153C236.492 177.325 234.223 177.181 232.006 176.727C231.345 178.649 231.237 178.98 227.949 179.284H227.769C225.973 180.018 224.354 181.099 222.612 181.93C220.731 187.313 220.731 187.313 217.943 188.294L217.032 188.644C220.643 192.212 220.643 192.212 220.035 195.754C221.147 197.131 221.708 198.154 219.508 199.727C219.547 200.38 219.924 200.946 220.012 201.588C221.55 203.476 221.55 203.476 220.677 204.184C219.813 204.573 218.975 205.016 218.166 205.51C220.943 207.36 221.547 211.782 225.761 211.936C228.114 212.168 230.45 212.554 232.752 213.09C234.714 213.632 235.367 215.893 237.263 216.52C240.367 217.551 243.704 216.774 246.816 217.758C248.55 218.341 250.201 219.145 251.73 220.15L263.586 216.689L320.446 234.267L320.296 232.729L327.275 232.879C325.737 218.266 322.938 203.837 321.68 189.198L322.941 182.349L322.807 181.814C321.807 181.657 321.203 181.56 317.938 181.249C312.997 180.745 308.628 177.98 303.645 177.634L302.96 177.603" fill="#DFEFF8"/>
<path d="M17.3187 262.617L17.2418 262.713C17.7071 262.69 18.1724 262.663 18.6339 262.617C18.1955 262.617 17.7571 262.617 17.3187 262.617Z" fill="#DFEFF8"/>
<path d="M31.1241 249.273C29.9887 249.318 28.8605 249.474 27.7554 249.739L27.4786 249.8C24.8695 250.031 22.2462 250.053 19.6337 249.866C17.7955 251.519 17.7956 251.519 16.8226 251.842C16.4764 253.038 15.8023 254.113 14.8768 254.946C14.6253 255.099 14.4144 255.31 14.2618 255.561C14.1092 255.813 14.0194 256.098 14 256.392C14.173 258.599 16.3727 259.056 17.4956 260.449C20.8565 260.402 24.033 258.987 27.4324 259.16C27.8206 259.172 28.2068 259.219 28.5861 259.303C30.0012 259.606 31.0741 260.702 32.4969 260.991C34.4166 261.028 36.3314 261.2 38.2268 261.506L40.6264 262.391C38.1514 263.52 35.4835 264.166 32.7662 264.294C30.8126 264.271 29.1052 263.052 27.1286 263.14C26.9389 263.174 26.7551 263.235 26.5826 263.321C23.4359 264.237 20.1895 264.767 16.9149 264.898L16.4266 264.944C16.5069 265.128 16.6409 265.284 16.8111 265.39C18.0955 265.632 19.5029 265.182 20.6758 266.059C21.6038 265.853 22.5172 265.586 23.4101 265.259C23.5793 265.205 23.5792 265.205 35.8464 264.444V264.09C41.7262 264.709 47.4445 266.851 53.4819 265.932C53.8934 262.137 48.4635 262.364 48.5558 258.783L47.3791 257.749C47.1271 257.12 46.7174 256.567 46.1893 256.143C45.6612 255.718 45.0326 255.437 44.3642 255.326C42.0011 254.846 39.9127 253.476 38.5306 251.5L36.1887 251.527C33.0469 249.254 31.6048 249.277 31.128 249.285" fill="#DFEFF8"/>
<path d="M34.4084 266.703C31.2512 266.876 28.0825 266.869 24.9331 267.211C23.8255 267.33 22.8256 267.857 21.7412 268.072C24.2793 268.418 26.6789 268.926 25.7713 270.983C25.7136 271.11 25.5636 271.449 25.9636 271.483C26.2712 271.51 26.4674 271.272 26.7327 271.164C28.7349 270.044 30.9405 269.336 33.2201 269.08L33.6392 269.037C32.4856 267.665 33.8085 266.949 34.4084 266.703Z" fill="#DFEFF8"/>
<path d="M314.954 274.648C312.82 274.81 312.82 274.81 302.922 281.832C300.593 283.305 297.808 283.883 295.084 283.458C294.008 283.439 292.927 283.412 291.85 283.408C292.235 285.585 292.235 285.669 285.105 287.546C274.722 290.307 272.196 289.392 271.115 289.004C268.908 289.626 266.501 289.05 264.378 290.219C262.358 291.717 260.597 293.536 259.163 295.602C258.252 298.825 265.947 306.924 266.035 306.974C269.604 308.993 269.762 308.962 270.342 308.85C270.485 308.4 270.514 307.922 270.427 307.458L270.123 306.439L276.068 305.758L279.833 305.185L284.832 305.67L284.694 303.52C289.528 299.959 294.858 296.914 302.176 302.067L314.75 303.693C316.173 300.921 316.173 300.921 323.295 301.14C334.586 299.986 334.586 299.986 336.943 300.255C337.808 299.329 339.423 297.602 347.941 300.09L350.714 299.89C350.61 299.763 332.451 286.666 327.66 286.477L326.375 286.45L325.199 284.954L322.438 284.677C319.146 283.158 320.772 281.801 322.253 281.239C322.586 281.118 322.878 280.905 323.095 280.624C321.015 277.888 318.192 275.808 314.962 274.633" fill="#DFEFF8"/>
<path d="M188.629 261.012C187.619 261.648 186.458 262.005 185.264 262.046H184.987C183.109 261.793 181.213 261.693 179.319 261.746C174.616 268.203 174.616 268.203 174.154 268.714C176 275.132 176 275.132 170.928 280.524L170.72 280.82C165.256 282.704 168.271 290.434 170.37 291.553C174.177 293.56 178.446 292.064 182.372 293.141C182.438 293.141 188.983 295.094 189.771 298.582C190.006 299.621 191.955 301.055 192.882 301.405C195.309 301.293 197.612 300.363 200.054 300.34C210.802 300.417 210.802 300.417 212.017 295.837L212.11 295.494C220.735 290.111 222.285 290.111 223.312 290.08C231.933 290.28 231.933 290.28 233.729 291.526C236.436 288.145 239.372 284.955 242.516 281.977L243.285 281.574C243.101 278.532 247.165 274.332 247.981 273.521C250.865 270.656 250.976 270.545 254.572 270.356C254.778 269.948 254.908 269.507 254.956 269.053C254.86 268.922 254.737 268.745 254.633 268.618C253.676 267.518 252.007 267.672 251.046 266.58C250.392 265.834 251.388 264.823 250.661 264.092L247.785 261.954C245.962 262.827 244.497 264.411 242.374 264.688C237.909 265.272 233.648 263.5 229.23 263.534C225.615 263.569 222.404 265.522 218.824 265.73C215.42 266.099 211.978 265.622 208.803 264.342C205.595 263.157 202.504 264.784 199.346 264.726C198.851 264.728 198.358 264.66 197.881 264.523C196.232 263.946 195.574 261.831 193.651 261.723C192.047 261.811 190.441 261.601 188.914 261.104L188.644 261" fill="#DFEFF8"/>
<path d="M166.417 267.188C166.304 267.283 166.225 267.413 166.194 267.558C166.164 267.703 166.183 267.854 166.248 267.987C166.563 268.891 166.367 269.599 164.414 270.333C161.894 271.53 159.096 272.019 156.319 271.748C154.781 271.748 153.727 273.01 152.316 273.356C152.535 274.629 152.804 274.794 154.392 275.248C157.538 276.148 158.411 277.101 157.734 278.889L157.592 279.205C158.957 280.189 158.957 280.189 159.749 292.018C163.937 291.795 163.937 291.795 164.844 291.41L165.614 291.111C164.249 289.594 163.54 287.599 163.642 285.562C163.745 283.525 164.65 281.611 166.16 280.239C172.051 275.982 172.405 275.728 170.486 269.529C166.909 269.199 166.64 267.837 166.556 267.322L166.417 267.188Z" fill="#DFEFF8"/>
<path d="M145.813 273.054C146.151 273.824 146.151 273.824 146.774 274.112C147.448 274.346 148.02 274.808 148.391 275.418C148.762 276.027 148.91 276.747 148.808 277.454C148.416 279.09 148.319 280.783 148.52 282.453C148.905 283.93 149.985 285.06 150.443 286.491C150.85 287.76 150.677 289.121 151.089 290.386C151.131 290.509 151.185 290.671 151.231 290.794C151.617 291.654 152.102 292.465 152.677 293.213C153.71 292.827 154.783 292.56 155.876 292.417C155.723 290.025 155.492 286.817 155.269 285.145C155.134 284.129 155.165 283.103 155.092 282.068C155.004 280.83 154.846 280.726 154.423 280.453C154.188 280.321 153.997 280.124 153.871 279.886C153.746 279.648 153.692 279.379 153.715 279.111C153.761 278.638 154.319 278.304 154.1 277.754C154.05 277.634 153.877 277.546 152.946 277.261C149.912 276.335 148.931 275.919 148.462 273.335C147.582 273.235 146.701 273.108 145.82 273.039" fill="#DFEFF8"/>
<path d="M254.665 265.289C254.622 265.881 254.622 265.881 254.691 265.95C255.108 266.267 255.579 266.505 256.08 266.654C255.666 266.143 255.191 265.684 254.665 265.289Z" fill="#DFEFF8"/>
<path d="M257.737 271.769C256.654 272.287 255.475 272.573 254.276 272.608C249.634 273.146 250.849 278.987 247.2 280.429C247.109 280.792 247.092 281.168 247.15 281.537C247.292 282.471 247.292 282.472 244.073 284.156C243.766 284.317 243.689 284.36 243.443 285.129C242.748 286.45 241.838 287.647 240.751 288.67C240.032 289.47 239.297 290.255 238.559 291.035C235.302 294.585 235.302 294.585 233.864 294.723C231.864 294.912 231.137 292.974 229.695 292.231C228.061 291.385 226.461 292.343 224.846 292.335C221.534 293.045 218.424 294.491 215.747 296.565C214.424 297.569 214.736 299.257 214.028 300.542C217.539 303.026 217.539 303.026 218.208 302.995C220.92 302.876 222.412 302.81 223.711 304.245C225.98 306.748 225.98 306.748 223.961 311.509L232.806 311.597L236.267 311.063C236.971 311.117 253.572 311.805 257.083 311.636C260.536 311.693 263.957 312.306 267.216 313.451C267.447 312.743 267.754 312.063 268.131 311.421C265.376 309.976 262.778 308.25 260.378 306.271L260.117 305.964C260.206 305.472 260.135 304.964 259.915 304.515C259.695 304.066 259.337 303.699 258.894 303.468C257.77 302.44 256.86 301.199 256.218 299.818C255.576 298.437 255.214 296.942 255.152 295.419C256.813 292.517 259.176 290.079 262.024 288.328C258.594 284.34 258.594 284.34 256.533 283.414C252.926 281.795 250.765 280.653 251.349 278.476C251.507 277.019 252.887 276.353 260.04 276.757C257.71 272.435 257.71 272.435 257.69 271.758" fill="#DFEFF8"/>
<path d="M93.7907 275.297C93.2963 275.919 92.6829 276.436 91.9864 276.819C91.2898 277.201 90.524 277.44 89.7337 277.523C89.0696 277.685 88.3799 277.712 87.7053 277.601C87.0308 277.491 86.3854 277.246 85.8075 276.881C84.7076 275.908 83.7617 277.235 82.7311 277.323C82.4004 277.354 82.0542 277.385 81.9966 278.608C83.3617 279.35 84.5384 279.992 84.0116 281.661C87.6263 285.191 83.727 285.603 82.4426 285.645L81.8504 285.611C82.3427 286.203 82.585 286.672 82.3658 287.287C81.9274 288.514 79.5931 287.883 79.7816 289.464C79.97 291.044 80.0738 291.898 79.2124 292.979C88.8916 295.974 88.2725 296.843 85.6613 300.508C85.9767 300.612 86.169 300.673 92.6295 299.643C101.635 297.651 110.899 297.093 120.079 297.989C119.214 295.843 116.233 294.913 116.618 292.048C116.618 292.002 120.121 286.664 120.156 286.63C120.643 286.157 121.191 285.753 121.786 285.426L122.674 284.865C122.524 282.88 121.905 279.4 119.36 278.408C119.148 278.32 118.923 278.27 118.694 278.262C115.915 278.436 113.163 278.914 110.488 279.688C107.772 279.71 105.129 278.812 102.989 277.139C102.183 276.513 101.208 276.143 100.19 276.078C94.5252 277.104 93.933 277.212 93.7985 275.308" fill="#DFEFF8"/>
<path d="M128.754 273.406C127.086 273.406 125.001 273.429 123.632 273.552C124.218 274.631 124.71 275.758 125.101 276.921C125.112 277.201 125.051 277.478 124.924 277.728C124.797 277.977 124.607 278.189 124.374 278.344C125.575 280.335 126.32 282.568 126.555 284.881C126.561 284.936 126.561 284.992 126.555 285.047C126.495 285.323 126.362 285.578 126.17 285.785C125.494 286.608 124.417 286.873 123.667 287.589C123.594 287.693 123.56 287.819 123.571 287.946C123.594 288.873 122.386 290.188 121.648 290.973C120.21 292.534 120.21 292.534 122.033 295.041C124.059 297.806 124.059 297.806 123.851 298.629C124.274 298.71 125.559 298.964 127.051 299.31C127.962 299.54 127.962 299.54 130.781 298.925C136.934 297.548 142.971 295.78 149.109 294.38C149.101 294.29 149.086 294.201 149.063 294.114C148.632 292.838 147.525 291.934 147.178 290.603C147.018 289.231 146.774 287.87 146.448 286.527C146.127 285.642 145.701 284.799 145.179 284.016C144.323 282.161 144.186 280.055 144.794 278.106C144.971 276.871 145.079 276.129 144.025 275.733C143.646 275.612 143.296 275.412 142.998 275.147C142.701 274.882 142.463 274.558 142.298 274.195C141.631 274.336 140.936 274.27 140.306 274.006C136.466 273.547 132.598 273.362 128.731 273.452" fill="#DFEFF8"/>
<path d="M39.2343 266.742C38.784 267.445 38.1048 267.971 37.3116 268.23C40.1457 270.684 34.4505 271.349 34.3889 271.353C32.6585 271.357 30.9582 271.806 29.4513 272.657L28.8014 272.941C30.2563 274.203 31.8404 275.308 33.5275 276.237C36.0366 277.162 38.3551 278.538 40.3687 280.298C41.9492 279.486 42.9568 277.887 44.6334 277.221C45.9045 276.795 47.2662 276.714 48.5789 276.987C51.5361 277.244 54.4819 275.652 57.4237 276.941C60.9577 278.479 60.9577 278.479 63.0227 283.282C65.1724 283.801 67.3797 282.205 69.5063 283.466C70.2021 283.933 70.7677 284.569 71.1499 285.314C71.532 286.06 71.7181 286.89 71.6905 287.727C71.5867 288.219 71.6059 288.243 71.8597 288.531C73.0749 288.181 73.8747 287.062 75.1168 286.766C75.5805 286.622 76.069 286.577 76.5512 286.633C77.0333 286.689 77.4983 286.846 77.9164 287.093L78.4241 286.827C75.5284 283.697 80.4928 283.197 80.5467 283.193H80.9659C80.7363 282.984 80.523 282.758 80.3276 282.517C79.943 281.994 80.5468 281.386 80.1968 280.859C79.7123 280.136 78.547 280.317 78.2317 279.371C77.9741 278.602 78.0856 277.906 78.7124 276.418C78.3355 276.216 78.0173 275.92 77.7888 275.559C77.5603 275.198 77.4294 274.783 77.4088 274.356L77.3203 274.003C75.2437 273.649 74.5477 272.58 75.5937 271.341C74.4321 270.118 73.3359 268.835 72.3096 267.496C68.3679 269.499 67.6566 269.861 64.484 269.034L63.3881 268.769C62.7554 269.246 62.014 269.558 61.2306 269.678C60.4472 269.797 59.6464 269.72 58.9003 269.453C58.6751 269.467 58.4547 269.523 58.2505 269.619C57.3563 270.003 56.3573 270.07 55.4201 269.807C54.4471 269.515 54.178 268.111 52.9397 268.238C50.4094 268.475 47.8635 268.497 45.3294 268.303C44.9872 268.273 44.5335 268.219 44.1758 268.173C42.4454 267.938 40.9071 267.019 39.1766 266.758" fill="#DFEFF8"/>
<path d="M66.9222 285.246C65.9224 285.34 64.9226 285.448 63.9227 285.569C62.4922 289.46 58.2892 289.122 55.5665 291.041C64.0004 294.752 72.6461 297.962 81.4584 300.655C82.0699 299.562 83.2657 298.836 83.4503 297.478C81.3778 296.235 79.1223 295.327 76.7669 294.786C75.5709 294.429 74.6249 294.144 74.5057 293.402C74.3326 292.329 75.7246 292.41 75.94 291.598C76.0082 290.83 75.9902 290.056 75.8862 289.291C70.8525 293.048 67.6184 289.249 67.7491 288.007C67.8532 287.509 67.8322 286.993 67.6879 286.505C67.5436 286.017 67.2805 285.572 66.9222 285.211" fill="#DFEFF8"/>
<path d="M54.828 278.477C53.0168 278.557 51.2864 279.2 49.4675 279.246L48.5637 279.215L47.1063 279.053C46.5794 279.884 45.3566 280.672 42.0725 282.295C42.6686 283.257 43.0685 284.326 43.7146 285.256C44.1233 285.844 44.623 286.364 45.195 286.795C47.406 288.127 49.7686 289.189 52.2324 289.959C53.4005 289.087 54.7276 288.451 56.1394 288.087C57.1691 287.719 58.1758 287.29 59.1543 286.802C59.5366 286.282 59.8627 285.722 60.1271 285.133C60.1541 285.01 59.9849 284.876 59.8964 284.787C59.5087 284.388 59.226 283.899 59.0735 283.364C58.9274 282.857 59.1312 282.318 58.9389 281.826C58.8875 281.701 58.8202 281.584 58.7389 281.476C57.628 280.254 56.3025 279.245 54.828 278.5" fill="#DFEFF8"/>
<path d="M74.4787 199.8C66.4031 199.877 54.8665 196.639 47.56 200.05C45.2527 201.126 44.1567 203.584 42.034 204.864C39.9112 206.145 37.5077 207.206 35.4312 208.71C35.2158 208.864 34.939 209.094 34.739 209.248C32.6201 211.102 31.4395 213.782 29.2129 215.543C26.2526 217.724 23.4058 220.055 20.6836 222.527L20.1914 223.007C19.0828 224.005 18.1278 225.161 17.3573 226.438L43.1222 226.111C43.5414 220.308 43.5414 220.308 43.9606 219.87C46.0564 217.666 49.0943 218.151 51.6246 217.178L52.436 205.391C67.6643 205.391 73.3596 205.391 77.5935 205.283C77.9733 203.55 78.0163 201.761 77.7204 200.011C76.6589 199.789 75.5707 199.723 74.4902 199.815" fill="#DFEFF8"/>
<path d="M81.6389 202.355C81.5428 206.262 81.3389 206.843 79.9738 207.108C79.2047 207.262 78.4356 207.408 55.9932 207.393C55.7817 210.566 56.8083 215.288 55.0701 217.949C53.1743 220.856 49.8133 219.772 47.233 220.814L46.7216 228.12L16.7996 228.505C17.5687 230.812 21.1642 230.297 21.3911 233.12C21.5103 234.612 19.9837 235.888 20.8143 237.477C22.9755 241.595 22.9755 241.595 22.9332 241.814C22.0235 244.245 20.4319 246.361 18.3494 247.909C18.7719 247.843 19.1984 247.804 19.6261 247.794C23.8946 247.929 28.0863 246.825 32.3779 247.19C34.4576 247.411 36.4448 248.166 38.1461 249.382L41.2725 249.348C43.2145 252.516 47.0793 252.916 49.6634 255.166C50.7287 255.012 50.7286 255.012 51.0285 254.012C51.2977 253.105 53.7782 250.655 58.6158 253.055L59.3849 253.416C60.3847 252.201 61.6691 251.943 64.6763 252.347C66.6938 252.678 68.7619 252.502 70.6946 251.836L71.1138 251.72C98.9784 251.505 98.9783 251.505 100.44 251.463C100.708 250.744 100.828 249.979 100.793 249.213L98.4861 247.898L92.5832 209.366L101.07 209.323C97.7362 208.112 88.8877 204.905 81.6389 202.352" fill="#DFEFF8"/>
<path d="M106.673 211.336L96.675 211.378L102.209 246.918L104.601 248.268C104.681 250.045 104.816 253.021 101.932 253.452C101.713 253.487 64.8765 254.583 63.6652 254.413L62.8076 254.325C60.5542 256.713 57.8699 255.509 55.2703 254.344L54.7051 254.633C54.4283 255.894 53.8936 256.517 51.3248 257.117L52.5054 258.151C52.2516 259.978 52.2939 260.001 54.3474 261.205C57.7277 263.189 57.7277 263.189 57.1893 267.288C63.6921 266.358 63.6921 266.358 66.2647 267.015C68.8374 267.673 70.3833 265.092 72.7175 265.012H73.029C74.0682 265.235 75.0275 265.736 75.8054 266.46C76.5833 267.184 77.1506 268.106 77.4474 269.126C80.4469 270.761 80.447 270.761 80.4047 271.399L80.1009 272.022C80.5777 272.545 80.5777 272.545 81.5468 274.768C84.0393 274.73 86.5298 274.931 88.984 275.368C89.4128 275.176 89.8037 274.909 90.1377 274.579C93.0334 271.638 96.3174 274.383 99.3669 273.941C99.8822 273.114 100.755 272.53 101.009 271.522C101.282 270.422 99.6246 269.3 100.774 268.3C102.989 266.377 106.377 267.265 108.492 265.096C113.492 259.955 113.492 259.955 115.03 260.312C115.707 260.52 116.381 260.732 117.052 260.947C117.725 259.839 118.229 259.628 119.929 259.255C125.786 257.125 125.786 257.125 126.566 257.244C130.537 255.289 134.785 253.957 139.16 253.294C142.94 252.737 146.644 254.206 150.42 253.706C152.686 252.777 155.131 252.366 157.577 252.502C174.066 253.271 175.427 250.814 175.051 237.889C172.882 238.146 170.713 238.402 168.544 238.658C168.525 234.498 167.479 233.34 157.919 232.425L156.934 232.363C148.824 223.68 107.012 211.428 106.647 211.367" fill="#DFEFF8"/>
<path d="M140.31 255.351C137.468 256.469 134.522 257.3 131.515 257.832L130.823 257.909C129.67 259.693 126.732 259.497 125.516 259.332L124.551 259.178C122.767 261.004 122.767 261.004 121.152 261.3L120.806 261.458C119.956 264.354 115.549 262.977 114.103 262.523C113.763 263.157 113.533 263.843 113.422 264.554L113.38 264.904C111.842 265.907 111.138 267.776 109.5 268.68C107.972 269.415 106.292 269.78 104.597 269.745C105.281 270.995 105.281 270.995 103.197 274.36C105.562 275.152 107.25 277.363 109.907 277.532C113.387 275.977 117.277 275.593 120.994 276.436C119.702 274.025 118.764 272.283 121.417 271.633C126.258 271.209 131.122 271.114 135.976 271.349C137.641 271.387 139.302 271.516 140.952 271.733C141.891 271.043 143.033 270.684 144.198 270.714C146.428 270.826 148.628 271.268 150.866 271.307C155.865 269.576 155.865 269.576 156.657 269.561C160.341 269.484 160.826 269.176 161.176 268.972C161.377 268.866 161.583 268.771 161.795 268.688C161.621 268.57 161.425 268.487 161.218 268.445L160.28 268.422C159.161 267.784 158.961 267.653 158.899 266.4C157.203 265.715 155.192 266.242 153.635 265.027C152.893 264.438 151.824 264.642 151.112 263.996C150.481 263.412 150.881 262.377 150.166 261.827C149.529 261.442 148.86 261.112 148.167 260.839C146.988 260.469 145.993 259.669 145.378 258.597L145.144 258.132C144.171 257.678 143.871 257.297 143.99 255.924C142.744 255.851 141.556 255.409 140.31 255.344" fill="#DFEFF8"/>
<path d="M235.821 218.52L204.565 229.153L190.594 235.375C190.532 235.375 183.353 236.798 178.854 237.437C179.181 247.435 179.238 249.538 175.435 251.83C170.72 255.049 161.849 254.964 156.976 254.626L147.805 256.164C149.07 259.194 154.073 258.471 154.258 262.594C155.184 262.724 156.051 263.125 156.75 263.747C157.076 263.959 157.076 263.959 160.418 263.774L161.733 263.855C162.729 264.701 162.729 264.701 162.737 265.966C168.375 264.886 169.547 264.663 170.363 267.043L170.401 267.22L170.974 267.082L176.939 260.006C179.428 259.314 182.049 259.243 184.572 259.798L184.987 259.898C187.354 258.918 189.949 258.626 192.474 259.057C194.999 259.488 197.35 260.623 199.258 262.332C201.392 262.24 203.434 261.521 205.568 261.436C209.314 261.29 212.594 263.467 216.286 263.574C219.543 263.667 222.208 261.363 225.427 261.309C230.545 261.609 235.617 262.421 240.743 262.601C242.978 262.398 244.324 260.371 246.396 259.829C246.193 255.087 250.376 251.865 258.702 247.227C259.982 246.512 259.983 246.512 260.971 231.357C259.308 230.284 257.938 228.814 256.987 227.079C256.035 225.344 255.532 223.399 255.522 221.42L250.665 222.827C248.607 221.151 246.234 219.904 243.685 219.161C241.137 218.417 238.465 218.193 235.829 218.501" fill="#DFEFF8"/>
<path d="M263.751 219.039L259.079 220.404C259.829 225.196 259.829 225.196 261.563 226.618C261.605 226.653 265.589 230.206 264.451 232.891C264.024 233.898 264.024 233.898 263.839 244.081C263.782 247.346 263.782 247.346 259.517 249.918C253.583 253.499 250.003 255.656 250.242 260.355L250.738 260.69C253.695 262.547 257.475 263.028 259.725 266.073C260.567 267.227 260.567 267.227 261.648 272.48C262.101 274.714 264.724 275.253 265.428 277.295C265.555 277.679 265.551 278.352 264.089 278.737C261.141 279.064 258.168 279.117 255.21 278.894C255.056 279.729 255.056 279.729 260.928 282.667C263.347 283.878 264.274 286.512 266.227 288.177C268.535 287.874 270.631 286.255 273.107 287.162C276.103 286.685 279.114 286.289 282.113 285.828C286.993 284.528 286.993 284.528 288.024 284.178C286.639 282.152 288.205 281.156 292.677 281.221C297.638 281.309 298.534 281.325 299.81 280.394C310.659 272.492 310.659 272.492 314.777 272.469L315.504 272.499C314.685 271.23 312.889 271.211 312.131 269.857C311.924 269.473 311.924 269.473 311.87 267.069C309.301 266.177 305.779 264.954 309.413 262.72C307.771 259.259 307.771 259.259 310.482 259.171H310.962C311.023 258.347 311.248 257.544 311.624 256.81C312.366 255.829 313.727 256.479 314.546 255.706C315.292 255.006 314.646 253.783 315.531 253.129C317.481 252.06 319.636 251.415 321.853 251.237C322.078 250.055 322.033 248.836 321.722 247.673L320.668 236.648L263.755 219.031" fill="#DFEFF8"/>
<path d="M326.314 183.242C326.236 183.408 326.174 183.581 326.126 183.757C325.922 184.911 327.014 185.788 326.837 186.945C326.683 187.918 325.245 187.965 325.299 189.084C325.376 190.729 326.587 191.995 326.795 193.594L330.086 224.143L373.279 225.208C374.409 224.563 375.686 224.221 376.987 224.214C378.288 224.207 379.569 224.537 380.705 225.17L390.592 225.455C391.486 226.115 392.518 226.565 393.611 226.77C393.894 226.148 394.398 225.653 395.026 225.381C396.272 224.724 398.044 225.893 399.006 224.228C399.844 222.786 400.229 222.124 402.394 222.117C403.409 222.228 403.409 222.228 404.401 221.382C404.405 220.619 404.36 219.856 404.266 219.098L389.75 205.354C388.292 204.346 387.869 202.497 386.527 201.397C384.851 200.028 382.789 199.228 381.143 197.794C380.963 197.632 380.717 197.409 380.536 197.259C379.781 196.546 379.099 195.76 378.498 194.913C377.894 194.083 375.037 189.914 378.059 189.326L378.378 189.28C380.424 189.376 381.209 189.83 385.6 194.806C387.465 196.914 389.676 198.69 392.138 200.055C393.341 198.467 392.649 196.017 394.553 194.744L394.614 194.317L395.287 192.994L390.465 187.495C387.077 187.626 383.716 187.111 380.34 187.057C375.079 186.953 370.022 184.938 364.704 185.38C359.605 185.803 354.648 187.907 349.406 186.707C341.804 184.877 333.94 184.784 326.291 183.246" fill="#71B8EB"/>
<path d="M237.217 313.382C237.363 315.098 237.287 316.824 236.99 318.52L236.775 319.443C231.776 319.581 226.73 319.408 221.72 319.827L221.547 319.97C222.862 320.608 226.357 322.304 223.085 323.492C222.476 323.678 221.854 323.815 221.223 323.9L220.051 324.115C219.981 325.354 219.097 326.296 217.005 327.372C217.801 328.053 218.685 328.611 219.516 329.241C220.347 329.872 220.67 330.926 221.493 331.549C223.585 333.152 226.077 334.117 228.184 335.698C229.318 336.544 230.134 337.732 231.295 338.547C231.769 338.88 232.264 339.183 232.776 339.455C234.01 338.874 235.365 338.595 236.729 338.64H237.229C236.974 338.141 236.668 337.669 236.317 337.232C235.425 335.921 233.333 332.852 240.843 332.929H241.739L242.124 333.037C245.231 327.653 249.115 331.714 249.865 332.587L250.499 333.279C252.199 333.302 253.807 333.964 255.499 334.006C256.068 333.987 256.779 333.96 256.583 329.684C256.624 328.809 256.583 327.932 256.46 327.065C255.906 324.25 251.803 325.392 251.342 322.473C251.245 321.881 251.438 320.781 253.784 320.074C255.214 319.639 255.229 319.212 255.199 319.093C255.106 318.708 254.814 318.532 254.337 318.293C251.711 317.909 249.1 319.831 246.466 318.335C245.512 317.801 245.512 317.801 246.158 313.686C243.166 313.586 240.175 313.477 237.186 313.359" fill="#DFEFF8"/>
<path d="M233.302 313.897L224.904 313.812C224.934 315.474 223.235 316.293 221.8 316.689C222.172 316.793 222.509 316.995 222.777 317.273L222.889 317.439C226.326 317.185 229.772 317.304 233.214 317.231C233.338 316.124 233.367 315.009 233.302 313.897Z" fill="#DFEFF8"/>
<path d="M280.256 307.5L277.18 307.961L274.38 308.285C274.192 311.119 271.258 312.576 270.862 315.306L270.669 316.941C264.094 314.547 257.107 313.493 250.119 313.841C249.998 314.59 249.893 315.34 249.803 316.091L249.984 316.299C259.982 314.78 259.252 319.679 258.856 320.283C257.958 321.296 256.751 321.986 255.422 322.244L255.341 322.498C255.846 323.164 256.557 323.645 257.364 323.867C258.418 324.134 259.332 324.788 259.925 325.7C260.517 326.612 260.744 327.713 260.559 328.785C260.613 332.992 260.632 334.407 259.144 335.48C258.202 336.128 257.066 336.434 255.926 336.345C254.264 336.376 252.707 335.665 251.053 335.622L250.484 335.676C249.666 335.702 248.854 335.521 248.125 335.148C247.396 334.776 246.774 334.224 246.316 333.546C243.293 335.257 243.293 335.257 242.558 335.269C241.509 335.269 240.459 335.269 239.409 335.269C239.401 335.42 239.431 335.571 239.497 335.707C241.197 338.072 243.32 341.018 236.806 340.983L236.036 341.056C238.072 342.044 239.948 343.33 241.605 344.871C243.685 343.967 245.888 343.378 248.142 343.121H248.646C249.353 343.257 250.039 343.483 250.688 343.794C251.657 344.136 251.657 344.136 252.818 343.598C255.402 342.394 260.025 341.91 261.978 344.129C263.263 343.357 264.733 342.949 266.231 342.948H266.443C267.008 342.252 266.443 341.275 267.035 340.587C267.651 339.968 268.471 339.593 269.342 339.533C269.423 339.176 269.441 338.808 269.396 338.445C269.089 330.612 269.504 330.277 270.262 329.673C271.831 328.416 273.907 328.089 275.484 326.843C275.661 326.705 275.661 326.705 276.253 324.943C276.872 323.583 277.691 322.323 278.683 321.205C279.598 320.144 280.391 318.983 281.048 317.744C281.783 316.241 281.194 314.391 282.298 312.988C283.125 311.934 284.394 311.273 284.94 309.977C285.177 309.348 285.25 308.669 285.151 308.004L280.225 307.519" fill="#DFEFF8"/>
<path d="M406.312 223.711C405.556 224.128 404.692 224.309 403.832 224.23L403.063 224.203C401.69 226.48 401.69 226.48 397.552 227.084C395.456 229.906 391.838 228.852 389.177 227.468L379.505 227.191C378.866 226.904 378.243 226.582 377.64 226.226L374.683 227.303L330.298 226.207L331.213 235.051L324.226 234.901C325.975 252.783 325.975 252.783 323.791 253.191C318.704 254.041 318.704 254.041 318.604 255.54C318.554 256.259 318.015 257.544 314.954 258.059C314.785 260.009 314.57 260.524 312.781 261.105C313.016 263.558 313.016 263.558 311.851 264.566C315.089 265.612 315.335 269.83 318.554 270.896L320.003 271.318L319.096 273.514C322.641 275.864 330.021 280.752 325.549 282.778L327.752 283.005C330.775 286.743 337.773 283.728 339.385 289.858C343.738 291.973 347.218 295.626 351.983 297.01L352.698 297.206C354.751 300.461 358.01 302.769 361.762 303.625C365.019 302.563 368.494 302.35 371.856 303.006C372.074 303.038 372.289 303.081 372.502 303.136C376.094 304.044 378.271 308.224 382.566 307.505C385.352 306.568 388.387 306.705 391.076 307.889C394.249 308.07 397.387 307.343 400.559 307.551C401.448 307.239 402.194 306.643 403.051 306.27L403.843 305.928L404.17 305.759C407.631 301.171 413.096 304.948 417.133 302.717L417.218 302.121C415.478 301.827 413.793 301.272 412.219 300.475C409.066 298.891 406.739 296.157 403.732 294.369C400.963 292.727 397.498 292.857 394.849 290.908C391.945 288.758 395.618 286.351 395.768 286.251C397.587 285.65 399.521 285.483 401.417 285.762C401.974 283.236 402.909 280.809 403.417 278.271C402.301 276.964 402.301 276.964 407.051 275.229C407.516 273.964 407.1 272.441 408.204 271.361C410.215 269.373 413.361 269.273 415.268 267.112C415.299 267.073 417.503 261.547 416.987 260.447C415.799 257.925 416.091 256.671 416.545 256.067C417.387 254.952 418.749 254.337 419.437 253.075C419.944 252.141 418.699 250.999 419.779 250.134C422.502 247.949 426.205 247.992 429.035 246.053C427.147 242.558 422.244 243.185 420.348 239.701C418.506 236.32 419.141 231.967 416.161 229.037C413.399 226.318 409.296 226.084 406.339 223.73" fill="#DFEFF8"/>
<path d="M470.336 272.172C469.004 272.94 467.425 273.161 465.933 272.787C465.126 273.639 464.253 274.426 463.322 275.141C463.173 275.229 463.043 275.345 462.938 275.483C462.553 276.183 463.114 277.129 463.376 277.502C463.981 277.514 464.584 277.419 465.157 277.221C466.551 276.782 468.058 276.876 469.387 277.486L469.625 277.283C464.853 276.221 466.483 274.821 467.406 274.268C468.689 273.584 470.089 273.147 471.532 272.98C471.177 272.653 470.772 272.381 470.336 272.172Z" fill="#DFEFF8"/>
<path d="M431.935 247.633C429.042 249.055 426.078 250.33 423.056 251.451C423.44 253.374 423.602 254.143 420.556 256.57C419.456 257.443 419.902 258.631 420.768 260.485C420.886 260.548 421.018 260.582 421.152 260.585C422.736 260.529 424.321 260.649 425.878 260.942C426.298 260.035 427.57 257.285 432.504 259.581C434.592 260.665 434.592 260.665 434.812 260.696C437.953 260.112 438.357 260.035 439.811 260.615C441.895 261.007 444.026 261.081 446.133 260.835L446.61 260.854C445.711 260.536 444.885 260.042 444.179 259.4C442.403 257.881 440.049 257.27 438.322 255.678C436.712 254.372 435.481 252.659 434.758 250.717C434.122 249.451 433.148 248.386 431.943 247.641" fill="#DFEFF8"/>
<path d="M448.69 261.203H448.452C450.932 262.243 453.338 263.451 455.654 264.818C459.069 266.698 462.388 268.74 465.799 270.625C465.945 270.701 466.099 270.652 466.249 270.667C466.479 270.69 466.706 270.713 466.933 270.725H466.972L467.275 270.544C463.614 268.433 460.288 265.787 456.508 263.883C454.101 262.501 451.451 261.593 448.702 261.211" fill="#DFEFF8"/>
<path d="M429.912 260.961C427.855 265.675 420.51 261.149 419.222 266.729C418.922 268.021 418.922 268.021 418.572 268.409C416.895 270.255 414.284 270.524 412.419 272.059C410.935 273.285 411.65 275.604 410.077 276.781C409.255 277.207 408.379 277.521 407.474 277.716L404.782 287.502C404.574 287.756 404.574 287.756 398.956 287.887C398.826 288.48 398.479 289.003 397.983 289.352C398.521 289.737 398.521 289.737 400.006 290.021C404.325 290.932 408.29 293.069 411.427 296.174C415.495 299.731 415.657 299.87 418.349 300.019C421.51 300.208 421.16 302.2 420.929 303.515C420.875 303.827 420.875 304.415 421.168 304.538C421.529 304.688 421.529 304.688 447.898 310.275C450.381 308.407 453.382 307.351 456.489 307.253C458.604 307.015 460.307 308.487 462.326 308.664L462.995 308.526C466.074 308.079 469.176 307.816 472.286 307.737C475.17 307.737 477.343 305.549 480.104 305.161C482.263 304.925 484.443 304.952 486.595 305.242C487.35 305.352 488.117 305.352 488.872 305.242C495.721 303.054 500.835 297.977 506.876 294.443C499.839 294.082 462.734 286.033 467.51 279.234C457.223 281.396 459.157 274.72 459.192 274.647C459.915 273.228 461.411 272.632 462.48 271.57C461.261 270.859 450.459 264.572 447.098 263.029C444.425 263.136 441.749 263.023 439.095 262.691C436.496 261.845 433.619 262.945 431.097 261.537L430.327 261.126L429.893 260.938" fill="#DFEFF8"/>
<path d="M402.486 172C402.328 172.529 402.055 173.016 401.686 173.427C400.767 174.58 399.698 175.611 398.725 176.722L398.925 176.765C400.262 175.418 401.771 174.254 403.413 173.304C403.47 173.272 403.518 173.226 403.551 173.169C403.793 172.846 403.974 172.269 402.486 172.015" fill="#DFEFF8"/>
<path d="M440.48 162.812C438.774 162.942 437.06 162.942 435.354 162.812C433.265 162.982 431.195 163.338 429.17 163.878C426.956 164.05 424.733 164.098 422.514 164.02C420.532 164.312 418.507 164.046 416.668 163.251C413.299 164.507 409.608 164.61 406.174 163.543L406.032 163.812C405.932 165.227 405.843 166.446 402.098 166.985C402.07 167.123 402.049 167.263 402.036 167.404C403.19 168.642 403.363 168.8 402.894 169.996C404.006 170.363 405.096 170.798 406.155 171.3C407.308 172.153 407.308 173.018 407.281 173.184C407.242 173.553 407.104 173.905 406.881 174.202C406.658 174.499 406.36 174.731 406.016 174.872C404.554 175.76 403.214 176.837 402.032 178.075L402.536 178.971C404.074 179.437 406.089 180.856 407.662 180.51C410.715 179.867 413.715 178.998 416.749 178.271C437.899 173.184 437.784 172.795 437.419 171.634C436.65 169.219 436.534 168.85 437.561 168.015C435.727 164.97 435.108 163.943 440.48 162.832" fill="#DFEFF8"/>
<path d="M398.787 180.642C397.698 180.611 397.368 180.604 396.983 181.553C396.778 182.172 396.695 182.826 396.741 183.476C396.866 183.781 397.06 184.053 397.31 184.268C398.057 184.989 398.901 185.602 399.817 186.091C399.867 185.18 399.867 184.268 399.817 183.357C399.755 182.729 399.769 182.097 399.859 181.473C399.918 181.22 399.951 180.962 399.959 180.703C399.575 180.677 399.171 180.654 398.779 180.642" fill="#DFEFF8"/>
<path d="M397.533 178.469C397.417 178.699 397.337 178.945 397.294 179.199C397.284 179.373 397.249 179.544 397.19 179.707C397.54 179.664 397.892 179.646 398.244 179.653C398.284 179.327 398.304 178.998 398.306 178.669L397.533 178.469Z" fill="#DFEFF8"/>
<path d="M394.987 183.641C394.355 184.472 393.67 185.262 392.938 186.006L396.498 190.047C396.613 189.068 397.014 188.145 397.652 187.394C397.702 187.351 397.833 187.163 397.971 186.375C396.747 185.746 395.713 184.803 394.976 183.641" fill="#DFEFF8"/>
<path d="M422.125 179.219C417.745 180.067 413.416 181.159 409.158 182.491L408.308 182.799L401.771 180.845C401.617 182.822 401.798 184.814 401.582 186.791C401.557 187.414 401.328 188.011 400.929 188.49C400.74 188.663 400.159 189.19 399.69 193.27C401.292 193.784 402.922 194.2 404.574 194.516C405.227 194.57 405.884 194.478 406.497 194.247C407.581 193.897 408.116 193.478 408.085 192.993C408.088 192.827 408.132 192.665 408.213 192.519C408.293 192.374 408.408 192.25 408.546 192.159C410.412 190.698 412.68 192.009 414.649 191.263C415.349 190.998 415.78 190.34 416.441 190.021C415.006 189.121 413.469 188.395 411.861 187.86C410.835 187.621 410.235 187.256 409.981 186.706C409.554 185.787 411.088 184.741 413.711 184.153C416.334 183.564 419.018 184.006 421.637 183.495C422.49 183.33 423.256 182.872 424.125 182.757H424.252C423.458 181.63 422.74 180.452 422.102 179.23" fill="#DFEFF8"/>
<path d="M433.934 135.172C434.05 135.253 434.211 135.356 434.319 135.449C434.961 135.999 435.273 136.829 435.911 137.371C436.549 137.914 437.488 138.141 438.161 138.733C438.266 138.827 438.366 138.927 438.461 139.033C438.648 139.281 438.774 139.57 438.828 139.876C438.882 140.182 438.863 140.497 438.772 140.794L438.695 141.009C440.615 140.875 442.541 140.849 444.463 140.932C446.001 141.232 447.433 141.93 448.617 142.955C449.305 143.463 449.305 143.463 449.443 143.447C452.626 142.966 455.856 142.889 459.057 143.22L459.707 143.294C460.038 142.863 460.68 142.394 462.71 142.628C464.741 142.863 466.556 144.036 468.617 144.324C467.156 143.305 466.852 143.094 467.633 142.178C467.106 142.001 466.579 141.794 466.048 141.632C465.742 141.629 465.436 141.602 465.133 141.552C464.67 141.46 464.233 141.269 463.853 140.99C463.472 140.712 463.157 140.354 462.93 139.94C462.545 139.348 462.545 139.348 460.707 138.675C460.644 138.648 460.58 138.625 460.515 138.606C457.661 138.044 454.835 139.375 451.978 138.74C451.275 138.55 450.593 138.292 449.939 137.971L443.068 135.61C440.033 135.08 436.945 135.629 433.907 135.172" fill="#DFEFF8"/>
<path d="M402.463 163.562C402.147 163.787 401.873 164.064 401.651 164.382L402.001 164.766C402.386 164.516 402.432 164.274 402.459 163.743L402.463 163.562Z" fill="#DFEFF8"/>
<path d="M430.4 184.745C425.047 184.589 419.696 185.125 414.48 186.341C416.464 187.649 418.933 188.226 420.421 190.279L420.163 191.117C417.714 192.814 414.761 193.628 411.788 193.425C410.984 195.859 407.7 196.478 405.085 196.567C402.754 196.337 400.46 195.821 398.256 195.028C398.075 198.801 398.075 198.801 407.523 204.85C411.852 208.151 415.946 211.748 419.775 215.617C424.05 218.674 428.56 221.39 433.261 223.739C437.607 226.6 437.211 233.307 442.629 235.302C447.986 237.275 447.986 237.275 465.175 252.992L465.879 252.811C463.545 248.619 468.244 248.896 474.747 249.281C482.507 249.177 489.806 252.846 497.651 252.08C502.727 251.584 505.342 246.397 510.179 245.478C512.351 245.234 514.543 245.226 516.717 245.455C528.712 245.506 540.677 244.248 552.399 241.701C553.553 241.471 556.326 234.395 555.234 233.134C554.715 232.577 554.113 232.105 553.449 231.734C546.417 231.344 539.422 230.46 532.514 229.088C532.26 228.977 508.072 216.679 510.833 213.087C510.264 212.083 509.953 211.549 507.053 209.96C499.631 206.411 499.45 206.177 497.22 203.289L491.967 202.904C482.276 198.401 471.171 199.966 461.411 195.77C452.274 191.707 442.916 188.162 433.381 185.153C432.418 184.875 431.418 184.745 430.416 184.768" fill="#71B8EB"/>
<path d="M560.494 221.852L559.652 222.105L558.21 222.032L558.829 224.505L554.822 227.751L553.907 229.739C555.101 229.985 556.219 230.512 557.169 231.276C558.119 232.039 558.874 233.018 559.371 234.13C559.433 234.546 557.676 242.367 555.911 243.252C555.099 243.66 544.401 245.228 535.487 246.447C538.612 249.485 541.741 252.518 544.874 255.546C548.976 254.951 553.12 254.703 557.264 254.804L557.491 254.777C556.549 250.712 561.452 250.989 566.647 251.278H566.947C570.577 247.513 570.577 247.513 573.746 247.297L574.457 247.259C574.173 246.371 573.346 243.344 574.73 241.729C576.388 239.787 578.999 240.695 580.96 239.656C581.687 236.668 585.017 236.161 586.471 233.869C583.393 233.031 580.595 231.384 578.368 229.1C577.845 228.654 577.845 228.654 576.922 228.504C573.472 228.17 570.073 227.423 566.801 226.278C566.374 226.109 565.801 225.893 565.386 225.697C563.463 224.836 561.782 223.516 560.49 221.852" fill="#DFEFF8"/>
<path d="M521.374 215.477C520.347 215.565 519.424 217.303 519.578 218.411C519.64 218.845 519.64 218.845 520.128 219.157C520.659 219.487 521.243 219.721 521.855 219.849C521.869 219.676 521.931 219.511 522.035 219.372C522.289 219.062 522.473 218.702 522.575 218.315C522.677 217.929 522.695 217.525 522.628 217.13C522.532 216.25 521.955 215.492 521.374 215.477Z" fill="#DFEFF8"/>
<path d="M557.36 216.625C554.284 218.332 552.427 221.655 549.1 223.066C545.872 224.287 542.408 224.755 538.971 224.435C532.93 223.943 532.93 223.943 531.061 224.785L530.376 225.066C533.641 227.931 533.641 227.931 550.019 229.423L551.377 226.554L555.003 223.601L554.057 219.801L558.183 220.005L559.052 219.736C558.283 218.436 557.453 216.806 557.36 216.625Z" fill="#DFEFF8"/>
<path d="M449.598 161.82H449.502L449.736 161.882L443.041 164.501C440.476 164.885 439.988 165.358 439.669 165.654C439.746 166.785 441.138 167.219 441.118 168.396C440.971 170.482 440.432 172.52 439.53 174.407L439.346 174.61C439.288 174.61 433.031 176.345 425.313 178.371C426.068 179.864 426.924 181.302 427.874 182.678C432.874 182.732 434.731 182.751 451.717 189.416C471.448 197.164 471.448 197.164 482.412 198.333C482.912 197.175 483.655 196.137 484.592 195.292C485.09 194.747 485.705 194.32 486.389 194.043C487.074 193.767 487.812 193.646 488.549 193.692C490.312 193.643 492.057 194.061 493.606 194.903C493.306 194.726 486.299 190.608 487.584 187.885L487.811 187.328C484.403 185.63 480.881 184.172 477.27 182.963L470.018 178.171C466.687 174.757 471.986 171.199 472.06 171.18C471.675 170.273 471.702 170.111 471.81 169.642C470.114 168.488 467.922 168.896 466.187 167.869C464.699 166.989 463.93 165.37 462.584 164.343L462.549 164.324C458.081 164.289 454.051 162.016 449.613 161.82" fill="#DFEFF8"/>
<path d="M489.522 195.719C488.314 195.761 487.472 196.53 486.191 198.764L488.883 199.053L492.936 200.929L495.298 201.099C494.436 200.099 493.459 199.203 492.606 198.184C492.269 197.844 492.015 197.431 491.864 196.976L491.887 196.496C491.162 196.079 490.36 195.818 489.529 195.726" fill="#DFEFF8"/>
<path d="M167.721 145.117C166.998 145.176 166.287 145.333 165.606 145.583C167.821 145.936 167.756 145.402 167.721 145.117Z" fill="#DFEFF8"/>
<path d="M324.064 166.781H322.745C323.184 166.781 323.626 166.808 324.064 166.781Z" fill="#DFEFF8"/>
<path d="M414.469 304.924C412.223 304.833 409.994 305.352 408.02 306.428L407.854 306.763L410.731 308.301L411.957 311.581L415.507 313.377C415.869 315.256 415.791 317.193 415.28 319.037C414.042 321.499 411.265 322.498 409.796 324.729C411.227 325.648 413.338 325.156 414.365 326.917C414.703 327.49 414.892 328.544 412.369 329.128C409.45 329.797 409.45 329.797 409.339 330.09L440.487 340.372L440.464 343.326C444.11 344.906 447.771 346.487 451.409 348.04C455.639 340.622 458.181 336.146 464.622 336.158C465.13 336.231 465.172 336.235 465.868 335.542L461.888 332.155L458.888 314.992L462.288 311.566L462.953 310.943C461.51 310.949 460.089 310.58 458.831 309.874C458.586 309.677 458.305 309.53 458.004 309.443C455.804 309.523 453.664 310.186 451.805 311.366C449.771 312.796 448.928 313.388 437.861 311.227C434.687 310.404 431.597 309.285 428.632 307.885C428.311 307.707 427.96 307.589 427.597 307.535C425.336 307.062 422.983 307.466 420.741 306.766C418.818 306.17 414.48 304.924 414.48 304.924" fill="#DFEFF8"/>
<path d="M405.259 308.292L404.724 308.458C404.558 308.813 404.297 309.115 403.97 309.331C403.643 309.547 403.262 309.668 402.871 309.68C400.955 309.91 399.012 309.771 397.149 309.269C395.483 309.038 394.211 310.303 392.642 310.423C391.517 310.488 390.394 310.263 389.381 309.769C387.569 309.061 387.569 309.061 383.412 309.769C383.263 310.787 383.204 311.817 383.235 312.845C385.673 314.103 387.6 315.095 384.581 317.283L384.124 317.598C383.889 318.171 383.493 319.137 379.978 319.656C378.795 320.47 377.843 321.576 377.213 322.867C376.829 324.705 375.541 326.289 375.717 328.277C375.79 328.918 375.764 329.567 375.641 330.2C378.52 329.587 381.434 329.148 384.366 328.885L389.688 328.781C391.953 324.893 393.941 322.59 405.801 324.167C406.263 323.123 407.044 322.252 408.031 321.678C409.435 321.081 410.58 320.002 411.26 318.636C411.94 317.27 412.111 315.706 411.742 314.226L408.458 312.561L407.235 309.258L405.259 308.25" fill="#DFEFF8"/>
<path d="M555.257 131C555.319 131.737 555.448 132.467 555.641 133.18C555.723 132.432 555.589 131.676 555.257 131Z" fill="#DFEFF8"/>
<path d="M532.061 246.918C526.64 247.78 521.132 247.955 515.667 247.441C513.225 247.302 510.782 247.677 508.495 248.544C506.208 249.411 504.129 250.748 502.392 252.471C501.954 253.013 501.397 253.448 500.764 253.743C500.132 254.037 499.441 254.184 498.743 254.17L471.624 250.783C470.805 250.575 470.498 250.494 468.994 251.598C470.367 254.051 469.913 254.174 466.948 254.959C467.837 256.351 467.667 256.882 467.487 257.432C467.326 258.533 467.569 259.656 468.171 260.593C468.321 260.862 468.533 261.208 468.702 261.465C469.605 262.815 471.067 263.63 472.017 264.926C473.09 266.392 471.809 269.306 474.285 269.768C476.243 270.129 476.243 270.129 497.193 267.603C499.658 267.307 501.704 265.742 504.115 265.338C506.649 264.915 509.195 265.622 511.729 265.249C512.752 264.884 513.727 264.4 514.637 263.807C515.232 263.392 515.896 263.085 516.598 262.9C521.104 261.94 525.677 261.329 530.276 261.073C534.891 260.466 535.302 259.919 535.772 258.443C536.379 256.52 538.848 256.339 540.663 256.209L541.544 256.136C538.383 253.059 535.216 249.983 532.045 246.906" fill="#DFEFF8"/>
<path d="M555.38 143.481C554.58 143.957 553.672 144.221 552.742 144.25C552.38 144.911 551.972 145.657 549.85 145.611C549.324 145.542 548.789 145.583 548.28 145.73C547.77 145.878 547.296 146.129 546.889 146.469C546.989 148.161 547.043 149.091 543.724 149.03C534.564 148.572 533.626 147.988 531.757 146.823C529.122 145.015 526.127 143.799 522.977 143.258C533.61 150.153 533.61 150.153 531.622 150.534C531.275 150.586 530.923 150.604 530.572 150.587C526.761 150.307 522.931 150.349 519.116 150.111H518.69C518.521 150.636 518.393 151.173 518.305 151.718C518.44 151.818 518.613 152.018 518.782 152.026C520.37 152.056 523.992 152.372 523.346 154.656C524.754 156.048 526.942 156.36 528.111 158.082C529.28 159.805 528.857 161.928 529.522 163.777C530.418 163.863 531.319 163.863 532.214 163.777C534.418 162.27 536.698 160.701 546.885 160.928C551.884 161.036 556.183 163.962 561.113 164.389H561.148C566.132 164.504 570.981 166.032 575.13 168.796C575.592 169.088 576.026 169.423 576.499 169.696C578.707 170.965 581.664 168.569 583.606 171.146C584.648 172.534 584.586 174.706 586.613 175.399L586.997 175.437C589.085 175.262 591.171 175.79 592.923 176.937C593.765 177.055 594.624 176.955 595.415 176.645C595.235 172.111 601.449 174.472 604.456 173.353C605.064 170.484 605.348 170.092 606.533 169.346L613.57 167.627C614.564 167.729 615.546 167.93 616.5 168.227L617.173 168.4L616.708 167.558C615.196 167.091 613.654 166.729 612.093 166.473C603.895 166.123 597.384 161.063 589.966 158.544C586.297 157.462 582.985 155.419 580.372 152.626C576.592 149.503 571.658 151.545 567.578 149.764C565.832 148.995 565.993 146.85 564.667 145.78C561.513 145.258 558.898 142.658 555.395 143.473" fill="#DFEFF8"/>
<path d="M459.115 151.43C459.161 152.422 459.18 152.753 458.008 153.195C461.565 160.117 464.93 166.689 470.698 167.423C475.697 168.05 477.697 171.653 472.567 175.826C475.587 179.776 479.977 182.453 484.872 183.328C484.953 183.328 492.713 185.109 490.833 189.347C493.467 191.008 494.951 194.392 498.605 194.526C499.277 194.146 500.034 193.943 500.807 193.936C501.579 193.928 502.34 194.117 503.019 194.484C511.799 195.207 516.302 204.152 524.635 205.728C532.815 207.267 539.936 212.831 548.723 212.062C552.704 211.437 556.731 211.147 560.76 211.197C564.771 212.32 566.528 216.965 570.804 217.661C570.954 217.688 593.328 220.776 597.185 221.122C598.7 217.442 599.327 215.919 607.998 215.535C607.454 214.913 606.748 214.454 605.96 214.208C603.541 213.285 603.203 210.089 600.634 209.328C598.081 208.653 595.641 207.606 593.393 206.221C590.863 205.125 588.525 203.629 586.471 201.791C584.094 198.93 590.27 198.141 591.816 195.988C591.016 195.369 590.805 195.219 587.628 194.68C584.294 194.13 583.783 194.046 580.98 187.924C578.757 183.075 578.826 182.925 582.449 175.553C581.68 174.341 581.133 172.98 580.28 171.807C573.985 171.292 568.928 166.75 562.59 166.366C556.822 166.162 551.781 162.609 545.924 162.905C541.03 164.397 535.993 165.367 530.896 165.8C518.117 178.925 482.707 156.187 482.78 155.51C482.83 155.01 482.969 154.356 482.965 153.841C476.405 152.087 468.352 162.186 463.449 154.398C461.665 153.856 461.665 153.856 459.134 151.472" fill="#DFEFF8"/>
<path d="M341.284 301.05C337.135 302.708 332.682 301.612 328.444 302.477C318.492 304.503 318.492 304.503 318.204 305.307L317.869 306.372L300.034 304.065C295.557 300.32 293.354 301.169 288.639 304.354C288.579 309.69 287.172 314.924 284.551 319.573C281.929 324.221 278.177 328.133 273.642 330.945C272.984 334.022 274.092 337.14 273.257 340.174C272.965 341.228 271.408 341.559 270.658 341.713C270.615 347.362 258.825 346.293 258.706 346.12C258.514 345.755 258.409 345.351 258.398 344.939C255.03 344.601 251.861 347.15 248.4 345.57C247.442 345.57 247.269 345.57 243.524 346.946C244.246 347.94 244.873 349 245.396 350.111C255.188 349.551 265.003 349.51 274.799 349.988H275.915C277.007 351.03 279.041 352.972 278.445 355.437L278.353 355.753C280.683 356.949 281.483 359.983 284.24 360.663C287.932 361.575 291.427 359.86 295.054 359.894H295.161C296.054 356.86 296.757 354.468 305.929 355.968L307.082 355.991L307.352 356.737C310.274 357.548 313.585 354.549 316.269 357.66C318.688 360.46 318.688 360.46 317.519 368.516C322.295 372.6 322.295 372.6 322.288 373.727C322.161 374.111 322.007 374.665 321.903 375.073C336.516 375.223 336.516 375.222 338.054 376.611L338.208 376.722C344.53 377.768 344.53 377.768 346.114 379.353L347.049 379.333C349.229 379.303 351.071 380.679 353.202 380.829C355.332 380.979 356.909 378.849 359.131 379.172C362.708 379.695 365.592 382.183 369.161 382.721C366.342 380.053 366.342 380.052 366.315 379.599C366.138 376.676 368.338 374.392 368.488 371.554C367.096 370.231 366.723 369.873 367.096 368.958L371.71 363.667C371.918 363.667 372.195 363.667 372.402 363.667C375.126 363.911 377.869 363.846 380.578 363.474C378.044 360.275 373.568 359.152 371.733 355.199C369.995 351.434 367.119 341.424 369.684 339.921L369.391 338.455C366.169 337.113 366.415 335.164 368.492 334.129L374.025 320.778C375.856 318.17 379.024 317.513 381.416 315.744L382.266 315.217H382.301C379.044 313.602 379.044 313.602 379.501 309.36C379.436 309.31 372.741 304.43 369.614 305.565L368.315 306.157C366.588 305.2 366.588 305.199 365.757 305.084C363.69 305.842 361.446 305.973 359.304 305.461C357.163 304.949 355.221 303.815 353.721 302.204L353.413 301.935L347.522 302.381C345.511 301.642 343.409 301.18 341.273 301.008" fill="#DFEFF8"/>
<path d="M378.851 385.019C376.841 385.772 374.629 385.784 372.61 385.054C373.209 386.245 374.145 387.234 375.302 387.896C376.418 388.094 377.561 388.08 378.671 387.854C378.836 387.714 378.959 387.53 379.024 387.323C379.071 387.173 379.159 386.892 378.867 385.016" fill="#DFEFF8"/>
<path d="M379.447 337.758H378.986C378.317 338.858 376.202 339.354 373.475 339.054C373.561 339.748 373.703 340.435 373.898 341.107C373.927 341.159 373.96 341.208 373.998 341.253C374.637 342.247 375.181 343.297 375.625 344.391C377.198 343.884 377.198 343.884 377.548 343.622C378.828 342.576 380.012 341.418 381.086 340.161L379.547 339.577C379.66 338.973 379.631 338.352 379.463 337.762" fill="#DFEFF8"/>
<path d="M463.557 379.894C461.008 381.014 458.31 381.754 455.546 382.09C452.767 382.512 449.945 382.583 447.148 382.301L446.513 382.132C444.117 387.162 429.393 382.92 429.285 382.786C426.978 382.482 424.697 383.285 422.386 383.043C421.756 385.9 425.078 390.8 426.559 392.776C428.039 394.753 430.743 395.018 432.485 396.672C434.227 398.325 432.912 403.655 432.896 403.709C432.189 406.016 429.651 404.732 428.189 405.632C426.563 406.643 428.904 408.297 428.47 409.685L427.901 410.481C422.31 410.312 416.53 403.371 416.476 403.301C414.599 400.86 418.049 399.125 417.399 396.833C416.983 396.68 416.983 396.68 413.242 397.079H412.953C411.035 396.902 409.195 396.231 407.612 395.134C406.639 394.607 406.639 394.607 387.334 398.483L389.199 401.84C396.125 402.677 402.956 404.168 409.6 406.293C410.7 407.128 412.869 415.207 409.962 417.634C409.804 417.765 409.577 417.93 409.415 418.057L409.073 418.334C410.193 419.033 411.005 420.133 411.342 421.41L411.496 421.86C412.749 422.433 413.069 423.014 412.65 423.983C411.612 425.348 410.243 426.426 408.673 427.117C406.801 428.067 408.154 430.193 407.135 431.431C404.906 433.539 402.318 435.232 399.494 436.431C399.513 436.5 402.317 443.718 404.878 445.21C406.289 446.025 407.677 449.186 406.947 455.412L406.985 455.827C407.962 452.839 413.242 451.597 424.809 448.832C429.424 447.736 429.424 447.736 429.424 441.399C429.843 438.046 428.916 434.664 426.847 431.993C425.767 430.07 423.794 428.917 422.748 426.967C422.408 426.465 422.189 425.892 422.108 425.291C422.028 424.69 422.087 424.079 422.283 423.506C422.647 422.996 423.141 422.592 423.714 422.335C424.286 422.078 424.916 421.978 425.54 422.045C427.647 421.902 427.628 419.426 429.208 418.707C430.92 417.938 432.858 418.018 434.592 417.284C438.668 415.546 441.575 411.815 445.975 410.631C450.694 410.018 455.342 408.94 459.849 407.412C462.791 405.821 465.464 403.777 467.771 401.356C468.183 400.937 468.541 400.468 468.836 399.96C468.067 395.591 466.118 391.55 465.272 387.2C464.787 384.728 464.095 382.305 463.576 379.844" fill="#DFEFF8"/>
<path d="M407.154 456.672C407.331 457.418 407.539 458.176 408.016 459.783C408.857 459.752 409.701 459.738 410.55 459.741C410.573 459.291 410.604 458.841 410.608 458.391C409.964 458.402 409.326 458.265 408.743 457.992C408.16 457.719 407.647 457.316 407.243 456.814L407.154 456.672Z" fill="#DFEFF8"/>
<path d="M388.608 331.175C386.951 331.133 385.294 331.219 383.651 331.433C386.166 334.875 387.55 336.771 383.324 337.544C383.407 337.84 383.475 338.14 383.528 338.444L386.266 339.455C381.366 345.289 380.778 345.485 376.948 346.761C377.733 349.976 379.575 352.833 382.178 354.875C383.336 355.536 384.353 356.418 385.17 357.471L390.142 364.347C390.294 364.691 390.339 365.073 390.273 365.443C392.276 366.17 394.32 366.779 396.395 367.266C400.167 367.964 403.865 369.012 407.443 370.396C409.677 371.577 412.008 370.2 414.269 370.661C414.803 370.782 415.32 370.969 415.807 371.219C419.072 373.448 421.378 376.823 422.267 380.675C423.117 380.756 423.967 380.863 424.821 380.902C426.413 380.517 430.635 379.495 432.919 381.975C434.915 381.894 436.896 381.59 438.895 381.59C440.026 381.706 441.153 381.89 442.291 381.975C442.902 380.341 443.864 379.741 445.963 379.668C446.832 379.73 447.689 379.903 448.513 380.183L449.478 380.429C450.869 379.77 452.411 379.496 453.943 379.637C456.929 379.309 459.851 378.549 462.618 377.379C461.055 376.893 459.549 376.242 458.123 375.437C456.158 373.363 454.513 371.006 453.243 368.446C453.259 367.458 453.138 366.472 452.885 365.516C449.809 364.239 451.67 361.744 453.043 360.371C446.871 357.525 446.74 357.048 450.194 350.207C444.141 347.638 437.465 344.742 437.403 344.716L436.465 344.289L436.484 341.535L409.085 332.506C408.84 333.244 408.429 333.916 407.885 334.471C407.34 335.026 406.676 335.45 405.943 335.709C409.177 338.171 406.851 338.809 405.701 338.967C405.597 338.967 390.734 338.313 389.907 337.936C387.8 336.975 387.369 334.756 388.588 331.156" fill="#DFEFF8"/>
<path d="M412.303 377.613C411.707 378.074 410.953 378.283 410.204 378.194L409.696 378.159C409.285 379.666 409.562 384.012 410.696 384.739C410.731 384.762 413.63 386.977 408.419 387.231H408.035C408.301 388.714 408.059 390.244 407.347 391.572C408.808 393.021 410.61 394.079 412.588 394.649C423.928 392.818 421.713 398.713 420.248 402.609C421.32 403.812 422.527 404.888 423.844 405.816C423.944 404.166 425.467 403.209 428.37 402.97L428.878 402.94C428.974 402.793 429.104 402.59 428.939 401.609C428.699 400.519 428.769 399.384 429.143 398.333L429.239 397.902C428.173 397.038 427.012 396.298 425.778 395.698C421.933 397.379 410.519 390.088 413.426 382.762C414.384 380.347 414.384 380.347 412.307 377.594" fill="#DFEFF8"/>
<path d="M457.027 144.926C455.138 144.897 453.25 145.009 451.378 145.26C452.789 147.721 452.789 147.721 454.716 147.806C455.628 147.782 456.538 147.912 457.408 148.191C458.154 148.475 458.588 149.183 459.273 149.552L464.48 151.309L464.949 151.463C466.172 151.459 467.383 151.705 468.507 152.187C469.631 152.668 470.645 153.375 471.486 154.263L471.825 154.24C471.463 153.855 471.29 153.363 470.913 153.005C470.657 152.83 470.379 152.691 470.086 152.59C468.786 152.194 467.562 151.583 466.464 150.782C466.056 150.436 465.929 149.879 465.537 149.521C464.853 148.898 463.999 148.525 463.303 147.894C463.214 147.814 463.095 147.702 463.014 147.614C462.864 147.495 462.749 147.337 462.681 147.157C462.613 146.978 462.596 146.783 462.63 146.595C462.285 146.207 461.883 145.875 461.438 145.61C461.184 145.433 460.669 145.068 456.989 144.914" fill="#DFEFF8"/>
<path d="M466.191 153.414C466.412 153.558 466.603 153.745 466.752 153.964L467.498 154.075C467.087 153.809 466.649 153.587 466.191 153.414Z" fill="#DFEFF8"/>
<path d="M471.471 143.375C475.105 144.913 473.467 145.775 472.878 146.005C470.337 146.571 467.683 146.327 465.287 145.309L464.518 144.994C466.102 146.125 466.195 146.532 466.152 147.071C466.179 147.097 469.882 150.332 470.259 150.501C472.09 151.098 473.717 152.197 474.955 153.673C477.081 153.062 479.089 152.089 481.246 151.554C482.074 151.345 482.939 151.325 483.776 151.497C484.27 151.571 484.739 151.755 485.151 152.037C485.562 152.319 485.904 152.691 486.151 153.124C486.398 153.557 486.543 154.04 486.576 154.538C486.609 155.035 486.529 155.534 486.341 155.996C486.931 156.259 487.537 156.483 488.156 156.665C488.925 154.05 492.921 153.369 492.248 149.878C492.01 148.636 491.829 148.497 485.888 144.909C485.205 145.148 484.496 145.303 483.776 145.371L483.169 145.428C481.8 146.309 481.473 146.517 479.1 145.894L478.77 145.813H478.708C476.066 145.701 473.993 143.89 471.49 143.379" fill="#DFEFF8"/>
<path d="M260.371 150.375C260.145 150.66 259.806 150.829 259.602 151.117C259.48 151.279 259.408 151.473 259.395 151.675C259.812 151.315 260.149 150.872 260.387 150.375" fill="#DFEFF8"/>
<path d="M455.592 73C446.153 73 437.1 76.7499 430.425 83.4248C423.75 90.0997 420 99.1526 420 108.592C420 119.65 425.629 128.876 432.952 136.057C450.458 153.228 451.983 140.59 455.592 228.81C459.199 140.59 460.724 153.228 478.233 136.057C485.556 128.876 491.185 119.65 491.185 108.592C491.185 99.1526 487.435 90.0997 480.76 83.4248C474.085 76.7499 465.032 73 455.592 73Z" fill="#29398C"/>
<g style="mix-blend-mode:color-dodge">
<path d="M455.984 138.968C472.543 138.968 485.968 125.543 485.968 108.984C485.968 92.4242 472.543 79 455.984 79C439.424 79 426 92.4242 426 108.984C426 125.543 439.424 138.968 455.984 138.968Z" fill="#3A446E" fill-opacity="0.44"/>
</g>
<g style="mix-blend-mode:color-dodge">
<path d="M456 118C460.971 118 465 113.971 465 109C465 104.029 460.971 100 456 100C451.029 100 447 104.029 447 109C447 113.971 451.029 118 456 118Z" fill="white"/>
</g>
<path d="M372.548 39C363.12 39 354.079 42.7453 347.412 49.4119C340.745 56.0785 337 65.1203 337 74.5483C337 85.5919 342.622 94.807 349.936 101.979C367.42 119.129 368.944 106.507 372.548 194.617C376.15 106.507 377.674 119.129 395.161 101.979C402.475 94.807 408.097 85.5919 408.097 74.5483C408.097 65.1203 404.352 56.0785 397.685 49.4119C391.018 42.7453 381.976 39 372.548 39Z" fill="#29398C"/>
<g style="mix-blend-mode:color-dodge">
<path d="M372.548 105.136C389.087 105.136 402.495 91.7281 402.495 75.189C402.495 58.6498 389.087 45.2422 372.548 45.2422C356.009 45.2422 342.601 58.6498 342.601 75.189C342.601 91.7281 356.009 105.136 372.548 105.136Z" fill="#344CAD" fill-opacity="0.44"/>
</g>
<g style="mix-blend-mode:color-dodge">
<path d="M373 84C377.971 84 382 79.9706 382 75C382 70.0294 377.971 66 373 66C368.029 66 364 70.0294 364 75C364 79.9706 368.029 84 373 84Z" fill="white"/>
</g>
<path d="M337.457 110C332.074 110 326.911 112.138 323.105 115.945C319.298 119.751 317.16 124.914 317.16 130.297C317.16 136.604 320.371 141.866 324.546 145.961C334.528 155.753 335.4 160.572 337.457 210.884C339.515 160.572 340.384 155.748 350.366 145.961C354.542 141.872 357.753 136.604 357.753 130.297C357.753 124.914 355.615 119.752 351.808 115.945C348.002 112.139 342.84 110 337.457 110Z" fill="#29398C"/>
<g style="mix-blend-mode:color-dodge">
<path d="M337.099 148.199C346.543 148.199 354.199 140.543 354.199 131.099C354.199 121.656 346.543 114 337.099 114C327.656 114 320 121.656 320 131.099C320 140.543 327.656 148.199 337.099 148.199Z" fill="#344CAD" fill-opacity="0.44"/>
</g>
<g style="mix-blend-mode:color-dodge">
<path d="M337 138C340.866 138 344 134.866 344 131C344 127.134 340.866 124 337 124C333.134 124 330 127.134 330 131C330 134.866 333.134 138 337 138Z" fill="white"/>
</g>
<path d="M537.385 109C530.653 109 524.196 111.675 519.435 116.435C514.675 121.196 512 127.653 512 134.385C512 142.273 516.016 148.854 521.238 153.975C533.723 166.222 534.813 172.249 537.385 235.173C539.959 172.249 541.046 166.216 553.531 153.975C558.753 148.861 562.769 142.273 562.769 134.385C562.769 127.653 560.095 121.196 555.334 116.436C550.574 111.675 544.118 109 537.385 109Z" fill="#29398C"/>
<g style="mix-blend-mode:color-dodge">
<path d="M537.386 155.772C549.197 155.772 558.772 146.197 558.772 134.386C558.772 122.575 549.197 113 537.386 113C525.575 113 516 122.575 516 134.386C516 146.197 525.575 155.772 537.386 155.772Z" fill="#3451FF" fill-opacity="0.42"/>
</g>
<g style="mix-blend-mode:color-dodge">
<path d="M537 142C540.866 142 544 138.866 544 135C544 131.134 540.866 128 537 128C533.134 128 530 131.134 530 135C530 138.866 533.134 142 537 142Z" fill="white"/>
</g>
<path d="M356.029 22.655V24.501H359.006V26.217H356.029V28.219H359.396V30H353.806V20.874H359.396V22.655H356.029ZM363.595 22.642C364.107 22.642 364.553 22.746 364.934 22.954C365.324 23.162 365.623 23.435 365.831 23.773V22.746H368.054V29.987C368.054 30.6543 367.92 31.2567 367.651 31.794C367.391 32.34 366.988 32.7733 366.442 33.094C365.905 33.4147 365.233 33.575 364.427 33.575C363.353 33.575 362.482 33.3193 361.814 32.808C361.147 32.3053 360.766 31.6207 360.67 30.754H362.867C362.937 31.0313 363.101 31.248 363.361 31.404C363.621 31.5687 363.942 31.651 364.323 31.651C364.783 31.651 365.147 31.5167 365.415 31.248C365.693 30.988 365.831 30.5677 365.831 29.987V28.96C365.615 29.298 365.316 29.5753 364.934 29.792C364.553 30 364.107 30.104 363.595 30.104C362.997 30.104 362.456 29.9523 361.97 29.649C361.485 29.337 361.099 28.8993 360.813 28.336C360.536 27.764 360.397 27.1053 360.397 26.36C360.397 25.6147 360.536 24.9603 360.813 24.397C361.099 23.8337 361.485 23.4003 361.97 23.097C362.456 22.7937 362.997 22.642 363.595 22.642ZM365.831 26.373C365.831 25.8183 365.675 25.3807 365.363 25.06C365.06 24.7393 364.687 24.579 364.245 24.579C363.803 24.579 363.426 24.7393 363.114 25.06C362.811 25.372 362.659 25.8053 362.659 26.36C362.659 26.9147 362.811 27.3567 363.114 27.686C363.426 28.0067 363.803 28.167 364.245 28.167C364.687 28.167 365.06 28.0067 365.363 27.686C365.675 27.3653 365.831 26.9277 365.831 26.373ZM377.072 22.746L372.522 33.445H370.13L371.794 29.753L368.843 22.746H371.326L373.003 27.283L374.667 22.746H377.072ZM380.099 23.773C380.316 23.435 380.615 23.162 380.996 22.954C381.378 22.746 381.824 22.642 382.335 22.642C382.933 22.642 383.475 22.7937 383.96 23.097C384.446 23.4003 384.827 23.8337 385.104 24.397C385.39 24.9603 385.533 25.6147 385.533 26.36C385.533 27.1053 385.39 27.764 385.104 28.336C384.827 28.8993 384.446 29.337 383.96 29.649C383.475 29.9523 382.933 30.104 382.335 30.104C381.833 30.104 381.386 30 380.996 29.792C380.615 29.584 380.316 29.3153 380.099 28.986V33.458H377.876V22.746H380.099V23.773ZM383.271 26.36C383.271 25.8053 383.115 25.372 382.803 25.06C382.5 24.7393 382.123 24.579 381.672 24.579C381.23 24.579 380.853 24.7393 380.541 25.06C380.238 25.3807 380.086 25.8183 380.086 26.373C380.086 26.9277 380.238 27.3653 380.541 27.686C380.853 28.0067 381.23 28.167 381.672 28.167C382.114 28.167 382.491 28.0067 382.803 27.686C383.115 27.3567 383.271 26.9147 383.271 26.36ZM390.743 28.115V30H389.612C388.806 30 388.177 29.805 387.727 29.415C387.276 29.0163 387.051 28.3707 387.051 27.478V24.592H386.167V22.746H387.051V20.978H389.274V22.746H390.73V24.592H389.274V27.504C389.274 27.7207 389.326 27.8767 389.43 27.972C389.534 28.0673 389.707 28.115 389.95 28.115H390.743Z" fill="#29398C"/>
<path d="M448.097 65L445.029 60.97V65H442.806V55.874H445.029V59.878L448.071 55.874H450.684L447.148 60.346L450.814 65H448.097ZM458.5 62.283C458.5 63.817 457.304 65.091 455.172 65.091C453.209 65.091 451.675 64.116 451.61 62.27H453.976C454.041 62.972 454.483 63.31 455.107 63.31C455.757 63.31 456.173 62.985 456.173 62.452C456.173 60.762 451.61 61.672 451.636 58.435C451.636 56.706 453.053 55.744 454.964 55.744C456.953 55.744 458.292 56.732 458.383 58.474H455.978C455.939 57.889 455.523 57.538 454.925 57.525C454.392 57.512 453.989 57.785 453.989 58.357C453.989 59.943 458.5 59.228 458.5 62.283ZM466.096 65L465.55 63.388H462.144L461.598 65H459.271L462.573 55.874H465.147L468.449 65H466.096ZM464.978 61.672L463.847 58.331L462.729 61.672H464.978Z" fill="#29398C"/>
<path d="M524.767 97.321V91.874H526.99V97.334C526.99 98.413 527.523 99.037 528.576 99.037C529.629 99.037 530.188 98.413 530.188 97.334V91.874H532.411V97.321C532.411 99.843 530.643 101.091 528.537 101.091C526.418 101.091 524.767 99.843 524.767 97.321ZM540.199 101L539.653 99.388H536.247L535.701 101H533.374L536.676 91.874H539.25L542.552 101H540.199ZM539.081 97.672L537.95 94.331L536.832 97.672H539.081ZM549.147 91.874V93.655H545.78V95.501H548.757V97.217H545.78V99.219H549.147V101H543.557V91.874H549.147Z" fill="#29398C"/>
<path d="M301.029 95.655V97.501H304.006V99.217H301.029V101.219H304.396V103H298.806V93.874H304.396V95.655H301.029ZM308.595 95.642C309.107 95.642 309.553 95.746 309.934 95.954C310.324 96.162 310.623 96.435 310.831 96.773V95.746H313.054V102.987C313.054 103.654 312.92 104.257 312.651 104.794C312.391 105.34 311.988 105.773 311.442 106.094C310.905 106.415 310.233 106.575 309.427 106.575C308.353 106.575 307.482 106.319 306.814 105.808C306.147 105.305 305.766 104.621 305.67 103.754H307.867C307.937 104.031 308.101 104.248 308.361 104.404C308.621 104.569 308.942 104.651 309.323 104.651C309.783 104.651 310.147 104.517 310.415 104.248C310.693 103.988 310.831 103.568 310.831 102.987V101.96C310.615 102.298 310.316 102.575 309.934 102.792C309.553 103 309.107 103.104 308.595 103.104C307.997 103.104 307.456 102.952 306.97 102.649C306.485 102.337 306.099 101.899 305.813 101.336C305.536 100.764 305.397 100.105 305.397 99.36C305.397 98.6147 305.536 97.9603 305.813 97.397C306.099 96.8337 306.485 96.4003 306.97 96.097C307.456 95.7937 307.997 95.642 308.595 95.642ZM310.831 99.373C310.831 98.8183 310.675 98.3807 310.363 98.06C310.06 97.7393 309.687 97.579 309.245 97.579C308.803 97.579 308.426 97.7393 308.114 98.06C307.811 98.372 307.659 98.8053 307.659 99.36C307.659 99.9147 307.811 100.357 308.114 100.686C308.426 101.007 308.803 101.167 309.245 101.167C309.687 101.167 310.06 101.007 310.363 100.686C310.675 100.365 310.831 99.9277 310.831 99.373ZM322.072 95.746L317.522 106.445H315.13L316.794 102.753L313.843 95.746H316.326L318.003 100.283L319.667 95.746H322.072ZM325.099 96.773C325.316 96.435 325.615 96.162 325.996 95.954C326.378 95.746 326.824 95.642 327.335 95.642C327.933 95.642 328.475 95.7937 328.96 96.097C329.446 96.4003 329.827 96.8337 330.104 97.397C330.39 97.9603 330.533 98.6147 330.533 99.36C330.533 100.105 330.39 100.764 330.104 101.336C329.827 101.899 329.446 102.337 328.96 102.649C328.475 102.952 327.933 103.104 327.335 103.104C326.833 103.104 326.386 103 325.996 102.792C325.615 102.584 325.316 102.315 325.099 101.986V106.458H322.876V95.746H325.099V96.773ZM328.271 99.36C328.271 98.8053 328.115 98.372 327.803 98.06C327.5 97.7393 327.123 97.579 326.672 97.579C326.23 97.579 325.853 97.7393 325.541 98.06C325.238 98.3807 325.086 98.8183 325.086 99.373C325.086 99.9277 325.238 100.365 325.541 100.686C325.853 101.007 326.23 101.167 326.672 101.167C327.114 101.167 327.491 101.007 327.803 100.686C328.115 100.357 328.271 99.9147 328.271 99.36ZM335.743 101.115V103H334.612C333.806 103 333.177 102.805 332.727 102.415C332.276 102.016 332.051 101.371 332.051 100.478V97.592H331.167V95.746H332.051V93.978H334.274V95.746H335.73V97.592H334.274V100.504C334.274 100.721 334.326 100.877 334.43 100.972C334.534 101.067 334.707 101.115 334.95 101.115H335.743Z" fill="#29398C"/>
<defs>
<linearGradient id="paint0_linear_3678_13686" x1="343" y1="-84.8683" x2="326.933" y2="502.971" gradientUnits="userSpaceOnUse">
<stop stop-color="white"/>
<stop offset="0.0001" stop-color="#DFEFF8"/>
<stop offset="1" stop-color="white" stop-opacity="0"/>
</linearGradient>
</defs>
</svg>
